/* XPM */
static char * bmxf6x64cop51_xpm[] = {
"64 64 8 1",
" 	c #0F379B",
".	c #FFE65A",
"+	c #FFAA32",
"@	c #FFFFFF",
"#	c #F06923",
"$	c #C3412D",
"%	c #8C2323",
"&	c #0F379B",
"+++++++++++++++++++++++++++++++++++++++++++.....................",
"+++++++++++++++++++++++++++++++++++++++++++.....................",
"+++++++++++++++++++++++++++++++++++++++++++++++++++.............",
"+++++++++++++++++++++++++++++++++++++++++++++++++++.............",
"+++++++++++++++++++++++++++++++++++++++++++++++++++.............",
"+++++++++++++++++++++++++++++++++++++++++++++++++++.............",
"+++++++++++++++++++++++++++++++++++++++++++++++++++++++++++....$",
"+++++++++++++++++++++++++++++++++++++++++++++++++++++++++++....$",
"+++++++++++++++++++++++++++++++++++++++++++++++++++++++++++....$",
"+++++++++++++++++++++++++++++++++++++++++++++++++++++++++++....$",
"               ####++++++++++++++++++++++++++++++++++++++++++++$",
"               ####++++++++++++++++++++++++++++++++++++++++++++$",
"               ####++++++++++++++++++++++++++++++++++++++++++++$",
"               ####++++++++++++++++++++++++++++++++++++++++++++$",
"           ########################++++++++++++++++++++++++%%%%$",
"           ########################++++++++++++++++++++++++%%%%$",
"           ########################++++++++++++++++++++++++%%%%$",
"           ########################++++++++++++++++++++++++%%%%$",
"       ################################++++++++++++########%%%%$",
"       ################################++++++++++++########%%%%$",
"       ################################++++++++++++########%%%%$",
"       ################################++++++++++++########%%%%$",
"#######################++++++++++++++++++++++++++++++++++++%%%%$",
"#######################++++++++++++++++++++++++++++++++++++%%%%$",
"#######################++++++++++++++++++++++++++++++++++++%%%%$",
"#######################++++++++++++++++++++++++++++++++++++%%%%$",
"###########++++++++++++++++++++++++++++++++++++++++++++%%%%%%%%%",
"###########++++++++++++++++++++++++++++++++++++++++++++%%%%%%%%%",
"###########++++++++++++++++++++++++++++++++++++++++++++%%%%%%%%%",
"###########++++++++++++++++++++++++++++++++++++++++++++%%%%%%%%%",
"###++++++++++++++++++++++++++++++++++++++++++++++++++++%%%%%%%%%",
"###++++++++++++++++++++++++++++++++++++++++++++++++++++%%%%%%%%%",
"###++++++++++++++++++++++++++++++++++++++++++++++++++++%%%%%%%%%",
"###++++++++++++++++++++++++++++++++++++++++++++++++++++%%%%%%%%%",
"+++++++++++++++++++++++++++++++++++++++++++++++++++++++%%%%%%%%%",
"+++++++++++++++++++++++++++++++++++++++++++++++++++++++%%%%%%%%%",
"+++++++++++++++++++++++++++++++++++++++++++++++++++++++%%%%%%%%%",
"+++++++++++++++++++++++++++++++++++++++++++++++++++++++%%%%%%%%%",
"+++++++++++++++++++++++++++++++++++++++++++++++++++++++%%%%%%%%%",
"+++++++++++++++++++++++++++++++++++++++++++++++++++++++%%%%%%%%%",
"+++++++++++++++++++++++++++++++++++++++++++++++++++++++%%%%%%%%%",
"+++++++++++++++++++++++++++++++++++++++++++++++++++++++%%%%%%%%%",
"+++++++++++++++++++++++++++++++++++++++++++++++++++++++%%%%%%%%%",
"+++++++++++++++++++++++++++++++++++++++++++++++++++++++%%%%%%%%%",
"+++++++++++++++++++++++++++++++++++++++++++++++++++++++%%%%%%%%%",
"+++++++++++++++++++++++++++++++++++++++++++++++++++++++%%%%%%%%%",
"+++++++++++++++++++++++++++++++++++++++++++++++++++++++%%%%%%%%%",
"+++++++++++++++++++++++++++++++++++++++++++++++++++++++%%%%%%%%%",
"+++++++++++++++++++++++++++++++++++++++++++++++++++++++%%%%%%%%%",
"+++++++++++++++++++++++++++++++++++++++++++++++++++++++%%%%%%%%%",
"+++++++++++++++++++++++++++++++++++++++++++++++++++++++%%%%%%%%%",
"+++++++++++++++++++++++++++++++++++++++++++++++++++++++%%%%%%%%%",
"+++++++++++++++++++++++++++++++++++++++++++++++++++++++%%%%%%%%%",
"+++++++++++++++++++++++++++++++++++++++++++++++++++++++%%%%%%%%%",
"+++++++++++++++++++++++++++++++++++++++++++++++++++++++%%%%%%%%%",
"+++++++++++++++++++++++++++++++++++++++++++++++++++++++%%%%%%%%%",
"+++++++++++++++++++++++++++++++++++++++++++++++++++++++%%%%%%%%%",
"+++++++++++++++++++++++++++++++++++++++++++++++++++++++%%%%%%%%%",
"+++++++++++++++++++++++++++++++++++++++++++++++########%%%%%%%%%",
"+++++++++++++++++++++++++++++++++++++++++++++++########%%%%%%%%%",
"+++++++++++++++++++++++++++++++++++++++++++++++########%%%%%%%%%",
"+++++++++++++++++++++++++++++++++++++++++++++++########%%%%%%%%%",
"+++++++++++++++++++++++++++++++++++++++++++++++++++++++++++%%%%%",
"+++++++++++++++++++++++++++++++++++++++++++++++++++++++++++%%%%%"};
