/* XPM */
static char * bmp_64x64_xpm[] = {
"64 64 267 2",
"  	c #000000",
". 	c #383030",
"+ 	c #484040",
"@ 	c #404038",
"# 	c #484840",
"$ 	c #504848",
"% 	c #585050",
"& 	c #484848",
"* 	c #605858",
"= 	c #404040",
"- 	c #685858",
"; 	c #706868",
"> 	c #686860",
", 	c #787070",
"' 	c #706860",
") 	c #787068",
"! 	c #585048",
"~ 	c #686060",
"{ 	c #686058",
"] 	c #807878",
"^ 	c #505048",
"/ 	c #080808",
"( 	c #403838",
"_ 	c #606058",
": 	c #585850",
"< 	c #707068",
"[ 	c #605850",
"} 	c #706060",
"| 	c #383838",
"1 	c #787870",
"2 	c #585858",
"3 	c #101010",
"4 	c #303030",
"5 	c #383830",
"6 	c #606060",
"7 	c #504840",
"8 	c #282828",
"9 	c #282820",
"0 	c #302828",
"a 	c #303028",
"b 	c #605050",
"c 	c #584848",
"d 	c #201818",
"e 	c #282020",
"f 	c #484038",
"g 	c #988888",
"h 	c #706068",
"i 	c #888080",
"j 	c #100808",
"k 	c #505050",
"l 	c #807070",
"m 	c #B8A8A8",
"n 	c #B0A0A0",
"o 	c #908080",
"p 	c #908888",
"q 	c #A09090",
"r 	c #202018",
"s 	c #202020",
"t 	c #A89090",
"u 	c #C8B0B0",
"v 	c #A89898",
"w 	c #989090",
"x 	c #807870",
"y 	c #A09890",
"z 	c #988088",
"A 	c #B8A0A0",
"B 	c #181818",
"C 	c #A89890",
"D 	c #C0A8A8",
"E 	c #B09898",
"F 	c #D8C8C0",
"G 	c #B0A098",
"H 	c #887878",
"I 	c #E0C8C8",
"J 	c #B0A8A8",
"K 	c #888078",
"L 	c #302830",
"M 	c #786868",
"N 	c #988080",
"O 	c #C8A8B0",
"P 	c #D0B8B8",
"Q 	c #C0B0B0",
"R 	c #B8A8A0",
"S 	c #D0B0B0",
"T 	c #C8B8B0",
"U 	c #D8C0C0",
"V 	c #181010",
"W 	c #A08888",
"X 	c #D8C0B8",
"Y 	c #D0C0C0",
"Z 	c #C0A8B0",
"` 	c #B098A0",
" .	c #181810",
"..	c #988880",
"+.	c #C8A8A8",
"@.	c #D8B8B8",
"#.	c #C0A0A8",
"$.	c #A89098",
"%.	c #D0C0B8",
"&.	c #806870",
"*.	c #786860",
"=.	c #887070",
"-.	c #A09088",
";.	c #C0A8A0",
">.	c #C8B0A8",
",.	c #080800",
"'.	c #181018",
").	c #E0C0C0",
"!.	c #908078",
"~.	c #E8C8C8",
"{.	c #E8D0D0",
"].	c #E0D0C8",
"^.	c #907878",
"/.	c #E0D0D0",
"(.	c #B8A098",
"_.	c #D0B8B0",
":.	c #E0C8C0",
"<.	c #C8B8B8",
"[.	c #504040",
"}.	c #786060",
"|.	c #E8D0C8",
"1.	c #E8D8D0",
"2.	c #282028",
"3.	c #685850",
"4.	c #D8C8C8",
"5.	c #C8C0B8",
"6.	c #080000",
"7.	c #584040",
"8.	c #302820",
"9.	c #685050",
"0.	c #C0B8B0",
"a.	c #A09898",
"b.	c #382828",
"c.	c #281818",
"d.	c #806868",
"e.	c #483030",
"f.	c #201820",
"g.	c #302020",
"h.	c #403830",
"i.	c #483838",
"j.	c #604848",
"k.	c #C0B0A8",
"l.	c #D0C8C0",
"m.	c #B8B0A8",
"n.	c #B0A8A0",
"o.	c #281820",
"p.	c #403030",
"q.	c #483840",
"r.	c #503838",
"s.	c #705858",
"t.	c #A8A0A0",
"u.	c #080008",
"v.	c #080810",
"w.	c #402830",
"x.	c #504038",
"y.	c #382020",
"z.	c #101008",
"A.	c #180808",
"B.	c #382028",
"C.	c #201010",
"D.	c #201018",
"E.	c #402828",
"F.	c #302028",
"G.	c #403038",
"H.	c #402820",
"I.	c #806060",
"J.	c #F8F0F0",
"K.	c #201008",
"L.	c #583840",
"M.	c #F0E8E0",
"N.	c #000008",
"O.	c #909090",
"P.	c #180000",
"Q.	c #482828",
"R.	c #604040",
"S.	c #F8F8F8",
"T.	c #281010",
"U.	c #887870",
"V.	c #F8E8E8",
"W.	c #886868",
"X.	c #301818",
"Y.	c #705050",
"Z.	c #F0D8D8",
"`.	c #503030",
" +	c #081008",
".+	c #403028",
"++	c #483038",
"@+	c #F8E0E0",
"#+	c #988078",
"$+	c #705850",
"%+	c #987870",
"&+	c #806860",
"*+	c #F8E0D8",
"=+	c #E8D8D8",
"-+	c #282018",
";+	c #F8F8F0",
">+	c #F0E0D8",
",+	c #A08080",
"'+	c #A88888",
")+	c #382830",
"!+	c #F8E8E0",
"~+	c #A08078",
"{+	c #B09088",
"]+	c #B09890",
"^+	c #605048",
"/+	c #483830",
"(+	c #807068",
"_+	c #A08890",
":+	c #F0E0E0",
"<+	c #100810",
"[+	c #584840",
"}+	c #987878",
"|+	c #B89898",
"1+	c #F0D8D0",
"2+	c #A08880",
"3+	c #F8D8D8",
"4+	c #383028",
"5+	c #C0A0A0",
"6+	c #584048",
"7+	c #604850",
"8+	c #786068",
"9+	c #685058",
"0+	c #786870",
"a+	c #785860",
"b+	c #503830",
"c+	c #907880",
"d+	c #907870",
"e+	c #786058",
"f+	c #584038",
"g+	c #503840",
"h+	c #D0B8C0",
"i+	c #D8D0C8",
"j+	c #D8D0D0",
"k+	c #908880",
"l+	c #381818",
"m+	c #180800",
"n+	c #402020",
"o+	c #100000",
"p+	c #706058",
"q+	c #201810",
"r+	c #705860",
"s+	c #805858",
"t+	c #200800",
"u+	c #200000",
"v+	c #301810",
"w+	c #604840",
"x+	c #483028",
"y+	c #583830",
"z+	c #583030",
"A+	c #605860",
"B+	c #685048",
"C+	c #684848",
"D+	c #F0E8E8",
"E+	c #A8A098",
"F+	c #E8E0E0",
"G+	c #C8B0B8",
"H+	c #C8C0C0",
"I+	c #887068",
"J+	c #B09090",
"K+	c #B89090",
"L+	c #907070",
"M+	c #C09898",
"N+	c #B89890",
"O+	c #C0A098",
"P+	c #C8A0A0",
"Q+	c #A89088",
"R+	c #A88880",
"                    . + @ + # $ % $ $ + & % * % # + = + * - ; % # > , * ; ' % > ) > ! ~ { ~ ] ) ^ * * ! * @                     ",
"                  / # ( . . ( # % % * _ : % % ~ ; * : % $ $ ~ < % % < , % % > ' ~ ' * [ ~ ' } ] % % ~ % $ % /                   ",
"                  ( . | = + # + + $ % & % % = . + ~ _ ~ ; % # _ 1 ~ % ) ~ * % _ ~ ; } % * ; ' , ~ $ ~ 2 + = #                   ",
"                3 4 . ( . 5 . @ + + ^ : ( # $ $ = 5 @ @ 6 2 ^ + % , ; * * ~ : + : ~ ; * 7 * _ , ; + ~ _ + ( #                   ",
"                8 @ ( . 5 4 8 9 0 a . $ _ * % & + $ + = $ ~ % ~ % + 6 ; ' ' 2 b c $ _ ~ : # : ~ ' # _ , + ( $ /                 ",
"              d | 0 8 8 . + % * * $ . e . % $ ^ ! $ $ = 5 $ : % * ; f % g , ~ # % h } % ~ $ ~ % ~ ! : i $ 7 ' /                 ",
"            j | e e . 5 4 a 4 0 . ( ( $ $ # k + + = + k ( @ + # + + * $ l m n ] = ~ o * % { ~ k ; % $ p ~ * q r                 ",
"            s s e 4 8 8 8 0 4 4 | 0 . ( 5 . + k | ( $ ( $ f 5 $ b 7 ~ ) ~ t u u n % v w : * x _ ; ; + y ] z A c                 ",
"          / B d 0 s d r e e 9 0 0 0 0 8 . = 0 @ ( + + + 5 + + # b l C D l E u u F G H I p $ g v * t $ J q v n K                 ",
"          / B 8 4 8 e 8 4 . 0 . 5 . 4 0 9 L ( | a ( 5 # $ ( % - M N t n D D D O u P A P I K i F ; n x Q R v t t                 ",
"          / s 8 s d r e 0 ( = + = . 8 ( 4 9 8 4 4 4 ( 4 c % b H N z t n D D D u u S P T U U y U q R A Q R E t A                 ",
"          V 8 e d s e B d s e e 0 a 0 4 ( ( 4 8 0 4 4 | + ~ M l o W E A D D u u S P P P P X Y P m m P Z R ` t D  .              ",
"          B s B s B B d B B d s s e . 0 r 8 8 8 0 9 4 ( c { M H ..C A m D +.u u S P P @.P X U u P u u u #.A $.D +               ",
"          B r V d s s d s s s s d e e 4 4 0 8 8 a 4 ( $ b } l o W E A m D u u u u P P @.@.U U U %.P P u D A E A &.              ",
"        / r  .B s e e a . ( ( ( + . . 4 4 . 4 0 a + ( c - *.=.o -.E A ;.+.>.u u S P @.U U U F I U U U T D A E A q               ",
"        ,.'.d s 8 8 9 0 s B s e 8 4 e . ( 0 . 4 0 7 b $ - } H o W E A m +.u u S P P @.U ).I I I I I U P u D A n n               ",
"        3 B 3 s s r s d e d B B B d 4 . 8 ( 8 0 . + b - } M l !.W E A D D u S P X U U ).I I ~.{.~.].I U P u A G u               ",
"        3 B B s B B s e s e a ( . 4 s s s 0 | 0 ( ( % - } M l ^...C A ;.Q u P @.U U ).I I ~.{.{.]./.I U P u m n u .             ",
"        3 3 B d 8 8 9 s 8 a 4 0 0 . + ( 4 8 0 ( + + b - } M l ^.W E (.D u _.P P U :.I I ~./.{.{.{.].].U <.u D n m o             ",
"        B B e s s s 9 s r d 0 0 0 4 0 8 | 4 a + [.$ b - } }.l ^.W C n D u P P %.U :.I I I |.].|.1./.].Y P u m A G A             ",
"        s 3 d d r B V V d d d s 8 a 4 8 e 9 2.. + $ % * - }.=.N -.E A D u T P U U I I I I /.].].{.{.I Y <.u m A v A d           ",
"      / B 3 3 3 B s 8 e r d d B 9 0 9 e 9 8 . ( + $ c b 3.} =.W t A D u u P P X U F I ].I /./.].{./.4.Y 5.u m n v v }           ",
"      6.V 3 B 8 7.a 8 . a 0 8 s 8.( . 0 s 0 ( ( + [.$ c 9.}.^.q E m Q u <.P P P Y U I ]./././././.].U %.<.0.m n a.q g           ",
"      / s / B b.c.d s d s s s s 0 . ( ( ( . 0 ( + + [.c 9.d.N t A D Q Q <.<.<.P %.Y F 4.4.F 4.4.4.4.Y <.Q m m v q g y /         ",
"        3 3 d V b.e.B s f.r r e g.0 h.( i.f ( ( i.+ [.j.} =...n k.D Q u u u Q Q <.P Y l.F Y Y Y Y Y T m.m m n.v v E l           ",
"        B d j o.b.g.e r e 8 0 p.. 0 . ( ( i.i.i.i.i.7.9.M ^.C t t t D u Q %.U P P <.<.%.Y Y <.<.0.Q m J n.m n g } .             ",
"        V V 3 e c.b.g.8 4 8 . b.b.. p.p.( i.i.i.i.i.7.- } - [.4 0 e d 0 p.i.3.l ^.` D <.Q Q <.Q Q A n n n l + j                 ",
"        3 3 V c.e b.e.8 a | 0 b.0 b.. p.( i.i.q.r.[.c c [.d j j j         /   ,.    e s.n n m Q Q m t.g i.u.6.j b.b.            ",
"        v.j V V g.b.w.p.8 s 0 . b.0 b.p.p.i.i.x.[.7.[.p.e 0 b.y.i.[.7.7.7.p.g.d V z.V '.j.N t.Q Q n l (   j A.V j               ",
"        / j V V e g.r.B.B e ( p.0 0 b.. p.i.i.[.[.c b c p.r.p.6.  A.V V 6.d C.V V d c.V b.9.W k.m q [.6.  / s /                 ",
"        3 j V V j D.g.E.. ( h.0 g.F.b.b.. G.i.x.[.b } }.} [.    B       k 3 s ,.j 6.A.g.H.7.I._.J.W K./ 6 =     . V             ",
"        3 3 V D.j V r.L.p.. b.F.g.g.0 b.. p.i.r.[.j.} l H g i.  * M.    N./ O.' B 9.P.y.Q.R.I.D S.D T.V Y N   s U.8             ",
"        3 / B V j V c.g.B.0 8.e g.F.0 b.b.p.i.i.[.c s.l !.g D ^.j.i . 3 2.[.:.P 7.V.W.X.Y.R.Y.;.J.Z.`.Q =.Q {.U m (             ",
"      /  +/ e z.j / V d d o.g.c.e g.g.b.b..+++r.[.c - M ^.g E u u P Z.@+V.J.%.#+:.S.{.R.$+%+&+(.*+V.9.o =+n <.Q n ~             ",
"        3 3 s V j j / 3 / -+e d g.g.g.g.b.. p.i.[.7.9.M H W G D <.X I I {.{.4.Z.;+V.>+,+W.,+'+E {.V.t r.Y /.<.Q n.M             ",
"        3 B B B V j j j j d d d e g.g.g.0 )+p.p.i.7.9.}.l g E ;.u Y F ].1.>+!+V.@+>+I (.~+'+{+]+).@+U ^+R Y Q m v .             ",
"        3 s B 3 '.j j j j V d d e g.g.g.b.b.p.p./+7.j.s.(+!._+E D <.U I /.=+>+>+:+=+U A ,+,+]+]+S @+Z.d.y <.m n o               ",
"        3 s B 3 3 j j <+3 V B d e g.g.g.b.)+p.p.e.r.[+9.}.=.N t R k.<.U 4./.{.=+=+{.Y E #+}+'+|+>.1+@+t p Q A v M               ",
"        B r B z.3 3 V j 3 3 V c.e e g.g.F.b.. p./+i.[.j.- d.^.W v A D <.Y 4.I /./.I %.E 2+#+2+(.D ).3+D K n t.W b.              ",
"        s d B j 3 3  .B j j V d e e g.g.F.b.4+p.G.i.r.7.9.s.(+^.W E A k.T %.U 4.F F 5.E '+N !.]+5+P 1+X o q v H /               ",
"      / e r B 3 j  .j B j 3 3 B d e e g.g.0 b.)+p.i.i.[.j.9.}.l N W E R D T P %.Y %.D E N N #+-.A P {.Z.t i -.%                 ",
"       .e s V V 3 B j B 3 j j V d c.e e g.g.b.b.p.i.i.7.6+7+s.8+=.^.W v (.D u T <.u v ..g W ..W G u 1+S.%.H H b.                ",
"    / 9 e 9 V B V V 3 d 3 3 j j V d e e e g.0 b.. p.i.[.7.j.9+s.d.=.!.W v A D Q <.D N H H ^.^.g E D 1.S.4.U.0+j                 ",
"    B a s s V B B 3 B r j 3 j j A.B d e e g.8.b.)+p.i.[.[.j.j.9.a+d.^.N q E R m k.v d.b+7.j.b - o n Y V.n.l -                   ",
"  / 0 8 e B d B B 3 d r 3 V z.z.<+V d o.g.g.F.0 . p.( i.[.[+c b s.}.(+H g C n A n m m /+y.-+d e p.- H o * H +                   ",
"   .( e 8 V e d '.V s d e e C.d z.3 V d e g.0 0 b.p.p.i.f [.c j.9.s.d.=.c+W v n n G Q m } c.          e H ^.d                   ",
"/ 0 4 0 s f.8 d V s e B 4+h.0 8.d j 3 C.d g.g.0 b.p.p.h.i.i.[.7.j.9.}.l H N W E G n $.v q s.r.b.C.c.7.l o l                     ",
"B 4 e 0 B e s s  .s B d h.[.i.4+b.V j V V c.g.0 b.b.p.p.( i.i.[.7.j.}.d.d+N W t n n v o o D A e+f+=.G M o M                     ",
"8 s 8 8 V 0 9 s d e  .e ( c [.h.p.-+V j <+V c.e 0 b.. p.p.i.i.i.g+c $+M =.N W v v G v n T h+=+I (.].Q i o (                     ",
"e d . s d e 8 r s a V e f b ^+[+/+b.g.V j 3 d o.e 0 b.. p.p.i.( i.[.b }.l z v C n k.Q 5.l.i+i+j+i+n k+, o /                     ",
"s e . B 9 e 4 B e 4 B 0 + b $+9.[+/+b.g.C.3 V d d e F.b.. p.p.p.( i.c s.M o g N n v o M c l+P.m+n+P.o+y.d.                      ",
"s 8 0 B 0 8 5 s 9 . e . $ b p+s.9.[+p.p.y.q+3 V d d e e 0 )+p.p.p.i.[.b r+l N s+n+t+u+v+H.`.w+b+f+r.X.p+u.                      ",
"e 8 2.d a 8 0 0 0 5 9 ( ! - e+s.p+^+[.r.i.E.c.V 3  .d -+e 0 4+p.p.i.f c b *.W o g } R.`.x+x+y+z+Q.X.c A+                        ",
"0 4 B s . 0 9 . . 5 0 i.b } e+e+}.B+7.7.r.i.p.g.V V B d e F.b.. p.( i.[.c } C v o K ~ b 7+c r.e.i.+ ; 6.                        ",
"9 0  .+ . . e | | . 4 [.- *.d.&+d.$+^+[+7.[.r.i.g.d V V e e 0 b.p.p.i.[.[+- H g M d.M } ~ { 7+[ ~ M b                           ",
"0 e 0 & 4 0 a # . | . ^+p+d.=.W.=.d.$+j.j.j.7.r.[.x.e z.V e 0 0 . p.h.[.c - d.H H g t t v m 5.0.q l b.                          ",
". 9 & ( 4 5 | & 5 . + s.*.=.d+^.d+=.e+$+9.9.C+j.j.w+w+r.g.0 c.b.b.b.p.r.6+9.*.=.^.C Q <.F :+D+j+E+} j                           ",
"8 | $ 5 = . = & 4 i.9.}.d.^.}+,+#+=.=.e+s.s.s.9.9.9.9.Y.j.x.e d g.b.. p.7.b }.l o q n.Q 4.F+=+i+m }                             ",
"0 = $ = @ 0 % = ( ^+p+d.=.#+,+2+#+d+d.d.}.}.e+s.s.} }.}.e+}.B+h.e e b.. i.c s.d.^.W n G+/.=+/.i+H+-                             ",
". = ^ = | # ^ 4 $ s.}.I+d+,+'+'+,+}+d+I+&+d.d.}.}.8+W.W.&+&+d.I.j.b.o.e p.i.9.- d.o G <.]././.4.%./                             ",
"4 ^ ( ^ ( + + [.3.I.I+d+N '+J+K+,+#+#+d+I+d.W.d.W.(+=.d+=.I+=.I+I+L+$+i.0 4+f j.- }.N n m m m q )                               ",
"+ 0 + k | 4 + s.I+L+~+2+J+J+J+M+N+2+2+#+d+=.L+I+=.=.^.}+N L+d+}+#+,+#+=.s.[.4+p.[.b M H l H M % B                               ",
"0 d @ ( 9 # c L+~+,+'+K+|+|+|+M+M+K+J+'+~+}+d+I+=.d+^.N ,+,+#+,+'+2+2+,+#+I+s.c . b.. 0 a 0 e b.                                ",
"9 ( @ s + $ }.}+'+J+N+|+O+P+P+5+P+M+N+{+'+#+^.d+=.U.d+N '+W J+J+'+t J+Q+,+R+2+,+^.*.}.} s.d.,+'+e                               "};
