/* XPM */
static char * dirt_16_xpm[] = {
"16 16 13 1",
" 	c #795548",
".	c #AED581",
"+	c #9CCC65",
"@	c #8BC34A",
"#	c #7CB342",
"$	c #689F38",
"%	c #8D6E63",
"&	c #757575",
"*	c #558B2F",
"=	c #616161",
"-	c #33691E",
";	c #5D4037",
">	c #3E2723",
"$$$**$-$@#$*$*-$",
"$*@#+>$*-+@#*$*$",
"+>.-$>#>#@+.>-*>",
">=>>%>>>*>$>;>>;",
" ; %> ;;>>>=; >;",
";>  ; >>>;;>;;;%",
"%;;;&;;%%;%%; ; ",
";;%%  ;; >  ;;  ",
" ;; ; ;>;  ;;;>;",
"; >;;>>;;;;;%%; ",
"; ;%%;% >%%>  &;",
" ;;  %; =  ;> ;>",
";> ;  %;;;;;;;%%",
"; ;;;;  ;>%>;%  ",
" ;>%;>;>%%;%;;  ",
" ;%  ;&;  ;;  ;>"};
