/* XPM */
static char * dirt_segmented_32_xpm[] = {
"32 32 343 2",
"  	c #4E8024",
". 	c #538726",
"+ 	c #4E7F23",
"@ 	c #629220",
"# 	c #7FAE15",
"$ 	c #74A113",
"% 	c #2FC22F",
"& 	c #2DBD2D",
"* 	c #2BB42B",
"= 	c #36B12B",
"- 	c #4E7F24",
"; 	c #72AE1B",
"> 	c #63901C",
", 	c #4A9126",
"' 	c #588F29",
") 	c #528726",
"! 	c #689A22",
"~ 	c #86B817",
"{ 	c #7BAA15",
"] 	c #32CD32",
"^ 	c #31C831",
"/ 	c #2EBE2E",
"( 	c #3ABB2E",
"_ 	c #79B71D",
": 	c #68981E",
"< 	c #4E9929",
"[ 	c #63911D",
"} 	c #73A21B",
"| 	c #629615",
"1 	c #488C08",
"2 	c #438107",
"3 	c #717D1E",
"4 	c #717C1E",
"5 	c #509326",
"6 	c #499C29",
"7 	c #318D1E",
"8 	c #179417",
"9 	c #389217",
"0 	c #73A31B",
"a 	c #6C9919",
"b 	c #4DA325",
"c 	c #3CB12C",
"d 	c #58AA24",
"e 	c #7EAD15",
"f 	c #74A013",
"g 	c #74A619",
"h 	c #628F1C",
"i 	c #4D8625",
"j 	c #69A110",
"k 	c #008000",
"l 	c #077600",
"m 	c #8B4513",
"n 	c #618225",
"o 	c #387D18",
"p 	c #3D8905",
"q 	c #7EAE15",
"r 	c #52BB28",
"s 	c #59BF29",
"t 	c #7CAD1A",
"u 	c #558A27",
"v 	c #469A28",
"w 	c #4AA32B",
"x 	c #5DA922",
"y 	c #6DBA22",
"z 	c #55A118",
"A 	c #007C00",
"B 	c #067100",
"C 	c #864312",
"D 	c #864212",
"E 	c #53791B",
"F 	c #44851E",
"G 	c #466F13",
"H 	c #536B07",
"I 	c #58760D",
"J 	c #74A51D",
"K 	c #63980E",
"L 	c #43B126",
"M 	c #30C630",
"N 	c #4EB529",
"O 	c #6A981A",
"P 	c #6A7721",
"Q 	c #6A7621",
"R 	c #679713",
"S 	c #518816",
"T 	c #4B7D1D",
"U 	c #2FC12F",
"V 	c #25B025",
"W 	c #3B7504",
"X 	c #5E5F09",
"Y 	c #7D5818",
"Z 	c #007900",
"` 	c #26AF26",
" .	c #40B42D",
"..	c #518325",
"+.	c #007600",
"@.	c #3F7204",
"#.	c #2CB32A",
"$.	c #2FBD2D",
"%.	c #2CB22A",
"&.	c #23A222",
"*.	c #027601",
"=.	c #076C01",
"-.	c #804013",
";.	c #376B04",
">.	c #575708",
",.	c #803F11",
"'.	c #735015",
").	c #508425",
"!.	c #518425",
"~.	c #056F00",
"{.	c #23A122",
"].	c #3BA629",
"^.	c #4B7921",
"/.	c #376B03",
"(.	c #056D00",
"_.	c #3B6904",
":.	c #834111",
"<.	c #78641C",
"[.	c #518426",
"}.	c #636D72",
"|.	c #824C34",
"1.	c #813F11",
"2.	c #78530F",
"3.	c #834011",
"4.	c #55A728",
"5.	c #5BA628",
"6.	c #884312",
"7.	c #77641C",
"8.	c #78520F",
"9.	c #55A628",
"0.	c #B47335",
"a.	c #BF7938",
"b.	c #B37234",
"c.	c #B77937",
"d.	c #BA843A",
"e.	c #AB7935",
"f.	c #B17036",
"g.	c #B17033",
"h.	c #AC6E30",
"i.	c #7C5110",
"j.	c #7C5210",
"k.	c #795B16",
"l.	c #7D6C1A",
"m.	c #7D5C16",
"n.	c #7D3E11",
"o.	c #9E6D43",
"p.	c #9A6E47",
"q.	c #A16B3B",
"r.	c #B17339",
"s.	c #C27E3B",
"t.	c #CD853F",
"u.	c #C17D3B",
"v.	c #C6803D",
"w.	c #BD7A39",
"x.	c #BE7B3A",
"y.	c #BA7636",
"z.	c #814011",
"A.	c #A7774B",
"B.	c #A27850",
"C.	c #AC7542",
"D.	c #BE7D40",
"E.	c #995C27",
"F.	c #A2622A",
"G.	c #AB6D32",
"H.	c #B1753B",
"I.	c #AB7542",
"J.	c #9D6B3D",
"K.	c #8C5C37",
"L.	c #B27338",
"M.	c #B07235",
"N.	c #AE7137",
"O.	c #9B5E28",
"P.	c #A4642B",
"Q.	c #8B5830",
"R.	c #875835",
"S.	c #815432",
"T.	c #8C5932",
"U.	c #8B5A35",
"V.	c #8C572B",
"W.	c #9A6130",
"X.	c #966F4A",
"Y.	c #B16E32",
"Z.	c #B97C43",
"`.	c #956E49",
" +	c #C18041",
".+	c #C27D3B",
"++	c #A77546",
"@+	c #9D744D",
"#+	c #8B5027",
"$+	c #7E3E10",
"%+	c #A56833",
"&+	c #B07741",
"*+	c #A6764A",
"=+	c #996D43",
"-+	c #9C744D",
";+	c #9C734D",
">+	c #BA7B3E",
",+	c #C6803C",
"'+	c #B27234",
")+	c #AE7139",
"!+	c #BB7938",
"~+	c #9E6B3E",
"{+	c #986B45",
"]+	c #946B45",
"^+	c #906A46",
"/+	c #7F4C37",
"(+	c #7F4C36",
"_+	c #8F5124",
":+	c #965420",
"<+	c #864B20",
"[+	c #8C562F",
"}+	c #92653F",
"|+	c #AD7948",
"1+	c #BD7A3A",
"2+	c #9A5924",
"3+	c #8F5831",
"4+	c #956E4A",
"5+	c #BB7E49",
"6+	c #844111",
"7+	c #BD7B3A",
"8+	c #C28041",
"9+	c #A37850",
"0+	c #956F4A",
"a+	c #AB7543",
"b+	c #7C3D10",
"c+	c #645755",
"d+	c #5D676B",
"e+	c #73675E",
"f+	c #99714B",
"g+	c #8D6845",
"h+	c #916843",
"i+	c #936D48",
"j+	c #B77637",
"k+	c #9D6E42",
"l+	c #946D48",
"m+	c #8D6844",
"n+	c #834110",
"o+	c #834010",
"p+	c #8F6541",
"q+	c #6B5C5A",
"r+	c #7A6D64",
"s+	c #8A5F3B",
"t+	c #996A45",
"u+	c #AA774E",
"v+	c #9E704A",
"w+	c #98714B",
"x+	c #B16F32",
"y+	c #996E45",
"z+	c #9C6C40",
"A+	c #B67940",
"B+	c #A76E3A",
"C+	c #8A532D",
"D+	c #8F643F",
"E+	c #7F4C28",
"F+	c #916743",
"G+	c #865B38",
"H+	c #8E562C",
"I+	c #966F49",
"J+	c #95653F",
"K+	c #8D603B",
"L+	c #A06633",
"M+	c #B36F32",
"N+	c #A36835",
"O+	c #8A5D3A",
"P+	c #AA7953",
"Q+	c #A87648",
"R+	c #A67140",
"S+	c #AD723C",
"T+	c #A15F27",
"U+	c #A25F27",
"V+	c #AE753F",
"W+	c #9C6F45",
"X+	c #90623D",
"Y+	c #966D47",
"Z+	c #936138",
"`+	c #A4632B",
" @	c #804012",
".@	c #9E754E",
"+@	c #793C10",
"@@	c #793B10",
"#@	c #7C3D11",
"$@	c #763B12",
"%@	c #5D6569",
"&@	c #5C6469",
"*@	c #AC7443",
"=@	c #9E6C3D",
"-@	c #8C6845",
";@	c #895D3A",
">@	c #763B11",
",@	c #926C47",
"'@	c #9F6C3C",
")@	c #B67637",
"!@	c #A7784B",
"~@	c #BE7E40",
"{@	c #5D676C",
"]@	c #896E57",
"^@	c #844A23",
"/@	c #8C4F25",
"(@	c #906440",
"_@	c #A67547",
":@	c #B2753B",
"<@	c #9C724B",
"[@	c #8E5D36",
"}@	c #96531F",
"|@	c #92582B",
"1@	c #8D6C50",
"2@	c #957355",
"3@	c #AB7443",
"4@	c #AB6D36",
"5@	c #814922",
"6@	c #BD7C3F",
"7@	c #C8823D",
"8@	c #A77241",
"9@	c #946943",
"0@	c #8B572F",
"a@	c #8C5A35",
"b@	c #885833",
"c@	c #815431",
"d@	c #8E5E37",
"e@	c #AD7642",
"f@	c #A36F3E",
"g@	c #A16E3E",
"h@	c #9B693C",
"i@	c #966E51",
"j@	c #967056",
"k@	c #8B674A",
"l@	c #8C633F",
"m@	c #7C6F68",
"n@	c #7E6A5B",
"o@	c #BB7939",
"p@	c #915A35",
"q@	c #8A5B3C",
"r@	c #915120",
"s@	c #A07247",
"t@	c #B3763C",
"u@	c #9B6B3F",
"v@	c #936842",
"w@	c #896E5E",
"x@	c #7E6E66",
"y@	c #896A52",
"z@	c #9D6C41",
"A@	c #876E5F",
"B@	c #907260",
"  . + . @ # $ % % & % * % = . . - . + . @ # $ % % ; # > . , % % ",
". ' ) ' ! ~ { ] ] ^ ] / ] ( ' ' . ' ) ' ! ~ { ] ] _ ~ : ' < ] ] ",
"+ ) [ } | 1 2 3 4 5 6 7 8 9 } 0 a } b c d e f 6 6 g e h ) i 6 6 ",
". ' } ~ j k l m m n ' o k p ~ ~ q ~ r ] s ~ { ' ' t ~ : ' u ' ' ",
"v w x y z A B C D E F G H I J J K j L M N J O P Q R j S F T Q Q ",
"% ] U ] V k l m m W k X m Y ' ' Z k ` ]  .' ..m m W k +.k @.m m ",
"#.$.%.$.&.*.=.-.-.;.l >.,.'.).!.~.l {.& ]...^.,.,./.l (.l _.,.,.",
":.m :.m <.' [.}.}.|.m 1.m 2.k k 3.m 4.] 5.m ,.m m 6.m 1.m D m m ",
":.m :.m 7.' [.}.}.|.m 1.m 8.k k 3.m 9.] 5.m ,.m m 6.m 1.m D m m ",
"0.a.b.a.c.d.e.|.|.f.a.g.a.h.i.j.,.6.k.l.m.6.n.a.a.o.p.q.a.r.p.p.",
"s.t.u.t.v.t.w.m m a.t.x.t.y.m m :.m :.m D m z.t.t.A.B.C.t.D.B.B.",
"E.F.G.x.H.I.J.K.K.L.x.M.x.N.K.K.O.P.Q.K.R.K.S.F.F.T.U.V.F.W.X.X.",
":.m Y.t.Z.B.`.B.B. +t.x.t.D.B.B..+t.++B.@+B.`.m m 6.m 1.m #+B.B.",
"$+D %+D.&+*+=+-+;+>+,+'+y.)+;+-+!+,+~+{+]+;+^+/+(+_+:+<+#+[+*+*+",
":.m }+B.|+t.1+B.B. +t.F.m #+B.B..+t.2+m 3+B.4+}.}.5+t.I.B.*+t.t.",
"6+m }+B.|+t.7+B.B.8+t.F.m #+B.9+s.t.2+m 3+B.0+}.}.5+t.a+B.*+t.t.",
"b+:.c+d+e+f+g+3.3.h+f+g+f+i+f+f+j+.+k+f+l+f+m+n+o+h+f+g+f+p+3.3.",
":.m q+}.r+B.`.m m p.B.X.B.;+B.B..+t.++B.@+B.`.m m p.B.X.B.{+m m ",
"s+}+t+u+v+w+m+x+Y.y+w+z+A+B+C+C+j+u.k+w+D+C+E+:.:.F+w+G+C+H+Y.Y.",
"f+B.A+t.Z.B.I+t.t.A.B.C.t.y.m m s.t.++B.J+m ,.m m p.B.U.m :+t.t.",
"K+J+L+M+N+J+O+P+P+Q+|+R+Z.S+T+U+V+Z.W+@+X+D b+3+3+Y+@+Z+T+`+v.v.",
":.m :.m D m -.}.}.5+t.I.B.*+t.t.f+B.w+B.J+m  @B.B..@B.C.t.,+t.t.",
"+@ @@@ @#@ @$@%@&@*@1+=@I+=+1+7+-@4+-@`.;@ @>@I+`.,@I+'@1+)@w.w.",
"f+B.f+B.@+B.I+t.t.!@B.C.t.~@B.B.{@}.]@B.@+B.I+B.B.8+t.a+B.{+m m ",
"f+B.w+B.@+B.I+t.t.A.B.C.t.D.B.B.d+}.]@B.@+B.`.B.B. +t.I.B.{+m m ",
"^@/@(@.@_@ +:@!@A.<@.@[@}@|@.@.@1@2@3@ +4@/@5@.@.@6@7@8@.@9@6.6.",
":.m }+B.|+t.1+B.B..@B.U.m #+B.B.f+B.A+t.M+m  @B.B. +t.I.B.{+m m ",
"O.P.0@U.Z+I.J.a@U.b@U.c@K.d@C.e@f@C.g@I.h@K.S.C.C.i@j@k@X.l@1.1.",
"s.t.2+m 3+B.`.m m 6.m K.B.*+t.t..+t.++B.@+B.I+t.t.m@}.n@B.{+m m ",
"o@,+p@(+q@*+=+#+#+r@:+d@;+s@,+v.t@D.u@{+v@{+l@~@D.w@x@y@*+z@:+:+",
"s.t.A@}.B@t.1+B.B. +t.I.B.*+t.t.f+B.C+m D m  @B.B. +t.x.t.,+t.t.",
"s.t.A@}.B@t.1+B.B. +t.I.B.*+t.t.f+B.C+m D m  @B.B. +t.x.t.,+t.t."};
