/* XPM */
static char * dirt_gold_mgt_16_xpm[] = {
"16 16 18 1",
" 	c #689F38",
".	c #558B2F",
"+	c #33691E",
"@	c #8BC34A",
"#	c #7CB342",
"$	c #9CCC65",
"%	c #3E2723",
"&	c #AED581",
"*	c #616161",
"=	c #8D6E63",
"-	c #5D4037",
";	c #795548",
">	c #757575",
",	c #776F67",
"'	c #414141",
")	c #91820D",
"!	c #DBC615",
"~	c #B1A012",
"   .. + @# . .+ ",
" .@#$% .+$@#. . ",
"$%&+ %#%#@$&%+.%",
"%*%%=%%%.% %-%%-",
";-;=%;--%%%*-;%-",
"-%;;-;%%%--%---=",
"=--->--==,==-;-;",
"--==;;--**>;--;;",
";--;*>>*')**>-%-",
"-**>'')!~~>-'*>;",
">>,=,>*))>*%;>*>",
";--;;=,>*,;-%;-%",
"-%;-;;=-------==",
"-;----;;-%=%-=;;",
";-%=-%-%==-=--;;",
";-=;;->-;;--;;-%"};
