/* XPM */
static char * dirt_realistic_16_xpm[] = {
"16 16 245 2",
"  	c #EFBB66",
". 	c #F0BC66",
"+ 	c #EEBB65",
"@ 	c #EDBA65",
"# 	c #E7B763",
"$ 	c #DEB05F",
"% 	c #DFB15F",
"& 	c #E2B260",
"* 	c #E4B461",
"= 	c #E9B763",
"- 	c #E6B562",
"; 	c #ECB964",
"> 	c #EFBB65",
", 	c #C09E50",
"' 	c #9B8B3F",
") 	c #838232",
"! 	c #757C2C",
"~ 	c #657822",
"{ 	c #5F761E",
"] 	c #687C24",
"^ 	c #637420",
"/ 	c #707D29",
"( 	c #707A28",
"_ 	c #7D7C2F",
": 	c #A08E42",
"< 	c #DAAE5C",
"[ 	c #EEBA65",
"} 	c #DAAE5D",
"| 	c #91803A",
"1 	c #4E6317",
"2 	c #455F14",
"3 	c #4C6A16",
"4 	c #5B7C1C",
"5 	c #567817",
"6 	c #5E811D",
"7 	c #5B7E19",
"8 	c #557616",
"9 	c #4F6F14",
"0 	c #4A6615",
"a 	c #4A6515",
"b 	c #4A6217",
"c 	c #75732D",
"d 	c #DDAF5E",
"e 	c #9E8643",
"f 	c #36480F",
"g 	c #354512",
"h 	c #3F5515",
"i 	c #445C14",
"j 	c #455F13",
"k 	c #425B12",
"l 	c #445E10",
"m 	c #466110",
"n 	c #486411",
"o 	c #496413",
"p 	c #405713",
"q 	c #3F5514",
"r 	c #47531A",
"s 	c #B9984F",
"t 	c #9B8543",
"u 	c #313E11",
"v 	c #2A3610",
"w 	c #2B390F",
"x 	c #364615",
"y 	c #27330C",
"z 	c #324310",
"A 	c #33440E",
"B 	c #32430A",
"C 	c #3C5211",
"D 	c #455C19",
"E 	c #445A1A",
"F 	c #394D12",
"G 	c #324212",
"H 	c #67652F",
"I 	c #BF9C53",
"J 	c #BD9B52",
"K 	c #64602B",
"L 	c #2F3310",
"M 	c #343210",
"N 	c #373313",
"O 	c #313915",
"P 	c #333410",
"Q 	c #322F0E",
"R 	c #333C11",
"S 	c #343D10",
"T 	c #434115",
"U 	c #373A13",
"V 	c #373E12",
"W 	c #554F20",
"X 	c #B69750",
"Y 	c #D0A65A",
"Z 	c #D6AA5B",
"` 	c #AB8C48",
" .	c #343113",
"..	c #412B12",
"+.	c #402C15",
"@.	c #362B11",
"#.	c #3E3618",
"$.	c #3A2513",
"%.	c #3E3216",
"&.	c #4A3D17",
"*.	c #463214",
"=.	c #2F240E",
"-.	c #323413",
";.	c #674D28",
">.	c #DFAF5D",
",.	c #E3B05D",
"'.	c #E1AE5F",
").	c #D2A559",
"!.	c #472E17",
"~.	c #583822",
"{.	c #3C2416",
"].	c #392C18",
"^.	c #432E17",
"/.	c #3D2414",
"(.	c #594125",
"_.	c #5A3F1F",
":.	c #4F3419",
"<.	c #412A18",
"[.	c #392614",
"}.	c #74562F",
"|.	c #E0AE5E",
"1.	c #E2AF5E",
"2.	c #DEAC5D",
"3.	c #C69953",
"4.	c #432918",
"5.	c #462C1C",
"6.	c #492C1D",
"7.	c #4B321C",
"8.	c #432617",
"9.	c #422618",
"0.	c #643D25",
"a.	c #714A2C",
"b.	c #492D19",
"c.	c #462C1B",
"d.	c #402415",
"e.	c #886539",
"f.	c #DDAC5D",
"g.	c #E2B060",
"h.	c #D9AA5C",
"i.	c #D0A258",
"j.	c #573E23",
"k.	c #563723",
"l.	c #452B1C",
"m.	c #3C2418",
"n.	c #3D2416",
"o.	c #482C1A",
"p.	c #5F3E28",
"q.	c #51331E",
"r.	c #543521",
"s.	c #392216",
"t.	c #412818",
"u.	c #A88246",
"v.	c #DBAB5E",
"w.	c #E8B565",
"x.	c #CDA158",
"y.	c #AB8448",
"z.	c #311C11",
"A.	c #341F13",
"B.	c #392115",
"C.	c #4F311D",
"D.	c #654124",
"E.	c #613E25",
"F.	c #4D2E1C",
"G.	c #563620",
"H.	c #4A2D1D",
"I.	c #422717",
"J.	c #73562E",
"K.	c #C19754",
"L.	c #E2B164",
"M.	c #AF844A",
"N.	c #593D20",
"O.	c #392214",
"P.	c #3F2618",
"Q.	c #462A1B",
"R.	c #422517",
"S.	c #412517",
"T.	c #53311D",
"U.	c #643F26",
"V.	c #4A2D1A",
"W.	c #412617",
"X.	c #361F13",
"Y.	c #3F2614",
"Z.	c #54341C",
"`.	c #926C3D",
" +	c #D0A35D",
".+	c #A27744",
"++	c #69492B",
"@+	c #4D331E",
"#+	c #3C2415",
"$+	c #3E2214",
"%+	c #3B2011",
"&+	c #3F2110",
"*+	c #4D2C19",
"=+	c #4C2E1C",
"-+	c #3C2316",
";+	c #3A2213",
">+	c #371F0E",
",+	c #452914",
"'+	c #583B24",
")+	c #B3864E",
"!+	c #CCA05E",
"~+	c #BF9658",
"{+	c #B2874E",
"]+	c #644022",
"^+	c #694828",
"/+	c #412816",
"(+	c #3E2516",
"_+	c #452613",
":+	c #52311E",
"<+	c #52301C",
"[+	c #412919",
"}+	c #492E18",
"|+	c #5C3C21",
"1+	c #7F5A33",
"2+	c #9B7646",
"3+	c #B1864E",
"4+	c #F2C172",
"5+	c #E7B96E",
"6+	c #DFB26A",
"7+	c #CEA160",
"8+	c #8C693F",
"9+	c #755333",
"0+	c #644629",
"a+	c #583C24",
"b+	c #4F3420",
"c+	c #65472C",
"d+	c #966D3F",
"e+	c #A17949",
"f+	c #E3B46C",
"g+	c #F7C576",
"h+	c #FBCA77",
"i+	c #FED47E",
"j+	c #FFD47E",
"k+	c #FFD37E",
"l+	c #FED27D",
"m+	c #FACF7C",
"n+	c #F1C677",
"o+	c #F0C374",
"p+	c #CFA663",
"q+	c #C69C5E",
"r+	c #D0A764",
"s+	c #F2C676",
"t+	c #F5CA79",
"u+	c #FCD47E",
"v+	c #FFD982",
"  . . + @ # $ % & * = - ; + > > ",
"  = , ' ) ! ~ { ] ^ / ( _ : < [ ",
"} | 1 2 3 4 5 6 7 8 9 0 a b c d ",
"e f g h i j k l m n o i p q r s ",
"t u v w x y z A B C D E F G H I ",
"J K L M N O P Q R S T U V W X Y ",
"Z `  ...+.@.#.$.%.&.*.=.-.;.>.,.",
"'.).!.~.{.].^./.(._.:.<.[.}.|.1.",
"2.3.4.5.6.7.8.9.0.a.b.c.d.e.f.g.",
"h.i.j.k.l.m.n.o.p.q.r.s.t.u.v.w.",
"x.y.c.z.A.B.C.D.E.F.G.H.I.J.K.L.",
"M.N.O.P.Q.R.S.T.U.V.W.X.Y.Z.`. +",
".+++@+#+s.$+%+&+*+=+-+;+>+,+'+)+",
"!+~+{+]+^+/+(+_+:+<+[+}+|+1+2+3+",
"4+5+6+7+8+9+0+a+b+E.c+d+e+f+g+h+",
"i+j+k+l+m+n+o+p+q+r+s+t+u+v+v+v+"};
