/* XPM */
static char * tron21_64_xpm[] = {
"64 64 277 2",
"  	c #000000",
". 	c #001111",
"+ 	c #001010",
"@ 	c #000F0F",
"# 	c #000D0D",
"$ 	c #000B0B",
"% 	c #000A0A",
"& 	c #000809",
"* 	c #000707",
"= 	c #000101",
"- 	c #000505",
"; 	c #000606",
"> 	c #000506",
", 	c #01ADAD",
"' 	c #01AEAE",
") 	c #01AEAD",
"! 	c #018080",
"~ 	c #000303",
"{ 	c #016666",
"] 	c #01ACAC",
"^ 	c #01ABAB",
"/ 	c #003636",
"( 	c #003737",
"_ 	c #013838",
": 	c #013939",
"< 	c #013A3A",
"[ 	c #013C3C",
"} 	c #013D3D",
"| 	c #014343",
"1 	c #02A6A6",
"2 	c #018D8D",
"3 	c #001515",
"4 	c #02B5B5",
"5 	c #015151",
"6 	c #013D3C",
"7 	c #002323",
"8 	c #02A0A0",
"9 	c #029494",
"0 	c #001A1A",
"a 	c #016464",
"b 	c #014444",
"c 	c #001E1E",
"d 	c #029A99",
"e 	c #029B9B",
"f 	c #001F1F",
"g 	c #000202",
"h 	c #016363",
"i 	c #02B6B6",
"j 	c #014646",
"k 	c #001919",
"l 	c #029393",
"m 	c #02A1A1",
"n 	c #002424",
"o 	c #016161",
"p 	c #014848",
"q 	c #001414",
"r 	c #028B8C",
"s 	c #02A9AA",
"t 	c #017574",
"u 	c #017473",
"v 	c #017373",
"w 	c #017272",
"x 	c #017171",
"y 	c #017070",
"z 	c #016F6F",
"A 	c #016F6E",
"B 	c #016E6E",
"C 	c #016D6D",
"D 	c #016C6C",
"E 	c #016B6B",
"F 	c #016A6A",
"G 	c #016969",
"H 	c #016869",
"I 	c #016868",
"J 	c #016767",
"K 	c #016667",
"L 	c #016565",
"M 	c #017675",
"N 	c #02B7B7",
"O 	c #014949",
"P 	c #019291",
"Q 	c #019292",
"R 	c #019393",
"S 	c #019494",
"T 	c #019594",
"U 	c #019595",
"V 	c #019696",
"W 	c #019796",
"X 	c #019797",
"Y 	c #019897",
"Z 	c #019898",
"` 	c #019998",
" .	c #019A99",
"..	c #019A9A",
"+.	c #019B9B",
"@.	c #019C9B",
"#.	c #019C9C",
"$.	c #019D9D",
"%.	c #014747",
"&.	c #000001",
"*.	c #019C9D",
"=.	c #019B9C",
"-.	c #019A9B",
";.	c #019999",
">.	c #03B6B6",
",.	c #017676",
"'.	c #016768",
").	c #01696A",
"!.	c #016A6B",
"~.	c #017271",
"{.	c #017372",
"].	c #017575",
"^.	c #01AAA9",
"/.	c #018C8B",
"(.	c #014748",
"_.	c #014645",
":.	c #02B6B5",
"<.	c #016262",
"[.	c #001D20",
"}.	c #002F33",
"|.	c #002C30",
"1.	c #001214",
"2.	c #02999A",
"3.	c #004444",
"4.	c #01585F",
"5.	c #028B97",
"6.	c #028794",
"7.	c #028895",
"8.	c #028592",
"9.	c #003539",
"0.	c #00191A",
"a.	c #015150",
"b.	c #03B5B5",
"c.	c #014B52",
"d.	c #003336",
"e.	c #011212",
"f.	c #001819",
"g.	c #014E54",
"h.	c #038D99",
"i.	c #002225",
"j.	c #003C3C",
"k.	c #003B3C",
"l.	c #003838",
"m.	c #013636",
"n.	c #01ABAA",
"o.	c #000B0C",
"p.	c #028692",
"q.	c #013F44",
"r.	c #000C0C",
"s.	c #01747E",
"t.	c #015F67",
"u.	c #001A1C",
"v.	c #018793",
"w.	c #00292C",
"x.	c #000404",
"y.	c #01484E",
"z.	c #017E8A",
"A.	c #000808",
"B.	c #000C0D",
"C.	c #001011",
"D.	c #003434",
"E.	c #003535",
"F.	c #001313",
"G.	c #000E0F",
"H.	c #028793",
"I.	c #01383C",
"J.	c #000909",
"K.	c #026D76",
"L.	c #01666F",
"M.	c #003939",
"N.	c #003A3A",
"O.	c #003B3B",
"P.	c #01ADAE",
"Q.	c #01B2B2",
"R.	c #001C1C",
"S.	c #01575F",
"T.	c #02848F",
"U.	c #00282A",
"V.	c #010F0F",
"W.	c #013F43",
"X.	c #038F9C",
"Y.	c #00282C",
"Z.	c #02AEAE",
"`.	c #01AFB0",
" +	c #01AEAF",
".+	c #01AFAF",
"++	c #001112",
"@+	c #029696",
"#+	c #001B1B",
"$+	c #026871",
"%+	c #028B98",
"&+	c #018490",
"*+	c #018692",
"=+	c #038B97",
"-+	c #01454B",
";+	c #003E3E",
">+	c #02B3B3",
",+	c #000607",
"'+	c #029898",
")+	c #00282B",
"!+	c #003A3F",
"~+	c #00353A",
"{+	c #029999",
"]+	c #014F50",
"^+	c #000708",
"/+	c #000A0B",
"(+	c #000E0E",
"_+	c #001212",
":+	c #015959",
"<+	c #03B7B7",
"[+	c #015A5A",
"}+	c #029C9C",
"|+	c #02B2B2",
"1+	c #01ACAD",
"2+	c #01ADAC",
"3+	c #015152",
"4+	c #001415",
"5+	c #013B3B",
"6+	c #003D3C",
"7+	c #003C3B",
"8+	c #003938",
"9+	c #002626",
"0+	c #016364",
"a+	c #016465",
"b+	c #016566",
"c+	c #016A69",
"d+	c #006A6A",
"e+	c #016B6A",
"f+	c #006C6B",
"g+	c #006F6F",
"h+	c #01706F",
"i+	c #017071",
"j+	c #017172",
"k+	c #017273",
"l+	c #017374",
"m+	c #002A2A",
"n+	c #019E9D",
"o+	c #019D9C",
"p+	c #019B9A",
"q+	c #019896",
"r+	c #019695",
"s+	c #019394",
"t+	c #002F2F",
"u+	c #017878",
"v+	c #03B1B1",
"w+	c #017E7E",
"x+	c #02ADAD",
"y+	c #002E2D",
"z+	c #003333",
"A+	c #027F7F",
"B+	c #02ACAB",
"C+	c #002C2C",
"D+	c #028988",
"E+	c #02A9A9",
"F+	c #018181",
"G+	c #02ABAB",
"H+	c #002B2B",
"I+	c #002525",
"J+	c #002625",
"K+	c #002727",
"L+	c #002828",
"M+	c #002D2D",
"N+	c #029090",
"O+	c #02A4A4",
"P+	c #018383",
"Q+	c #02AAAA",
"R+	c #002929",
"S+	c #02AFAF",
"T+	c #01B0B0",
"U+	c #029A9A",
"V+	c #002121",
"W+	c #028383",
"X+	c #01B2B1",
"Y+	c #002728",
"Z+	c #002425",
"`+	c #002221",
" @	c #002222",
"                                                                                                                                ",
"                                                                                                                                ",
"                                                                                                                                ",
"                                                                                                                                ",
"                                                                                                                                ",
"                                                                                                                                ",
"                                                                                                                                ",
"                                                                                                                                ",
"                                                                                                                                ",
"                                                                                                                                ",
"                                                                                                                                ",
"                                                                                                                                ",
"                                                                                                                                ",
"                                                                                                                                ",
". + @ # $ % & * =                                                                                               - ; ; ; ; ; ; > ",
", ' ' ) ) ' ' , ! +                                                                                         ~ { ] ] ] ] ] ] ] ^ ",
"/ ( _ : < [ } | 1 2 3                                                                                     ~ { 4 5 } } } } } } 6 ",
"                7 8 9 0                                                                                 ~ a 4 b =               ",
"                  c d e f                                                                             g h i j =                 ",
"                    k l m n                                                                         g o i p =                   ",
"                      q r s t u v v w w w w x x y y y z A B C D E E E F F F G G G H I J J K { L a h M N O =                     ",
"                        @ x P Q R R S S T U U U U V V V W X X Y Y Z `  .....+.+.+.+.+.@.#.#.$.$.$.$. .%.=                       ",
"                                                                                                                                ",
"                            &.                                                                                                  ",
"                      = %...$.$.$.#.*.#.@.=.+.+.+.+.-... .;.Z Y X X X W W V V V U U U U S S R R Q Q x @                         ",
"                    = O >.,.h a L { { J J '.I H G ).F F F !.E E D C B B z z y x x x ~.w w w {.{.u ].^./.q                       ",
"                  = (.i o g                                                                         n m l k                     ",
"                = _.:.<.g                                 g [.}.|.1.=                                 f e 2.c                   ",
"              = 3.4 a ~                                 * 4.5.6.7.8.9.=                                 0.9 8 7                 ",
"[ } } } } } } a.b.{ ~                                 = c.5.d.e.f.g.h.i.                                  3 2 1 | j.k.< : l.( m.",
"^.^ ^ ^ ^ ^ ^ n.L ~                                   o.p.q.-   = r.s.t.=                                   + ! ] , , , , ' ' , ",
"- ; ; ; ; ; ; -                                       u.v.w.=     x.y.z.g                                     = * A.% $ B.@ + C.",
"D.E.E.E.E.E.E.D.F.                                    G.H.I.~     J.K.L.=                                     c / ( l.M.N.O.[ [ ",
"] P.P.P.P.P.P.Q.e R.                                  = S.T.U.o.V.W.X.Y.                                    / Z.`. +.+, , P.P.] ",
". ++++++++++++c @+..#+                                  B.$+%+&+*+=+-+g                                 = ;+>+].q + @ r.$ % & ,+",
"                k '+;.0                                   - )+!+~+[.=                                 = %.b.D -                 ",
"                  0 {+Z k                                                                           = ]+>.h ~                   ",
"                    #+e X 0 ; * * ^+A.A.J.J.J.J.% % % % /+/+$ $ r.r.# # (+(+(+@ @ @ + + + + . . . _+:+<+[+g                     ",
"                      R.}+|+] 1+1+, , , , , , , ' ) ) , ) , 2+] 2+, ) ) ) ' ' ' ' ' ' ' ' ' ' , ) ) 4 3+g                       ",
"                        4+5+} } } } } } 6+j.j.j.j.7+O.O.O.N.N.M.M.M.M.M.8+l._ _ _ l.l.( ( ( / / / E.9+=                         ",
"                                                                                                                                ",
"                        x.%.<.0+a+b+{ { J '.I I I G c+F d+e+E E f+D C B g+h+y y i+x j+w w k+v v l+l+y m+                        ",
"                      ; y <+n+o+o+o+#.#.#.@.+.+.p+p+p+.. .;.` Z q+X X X X X V V V r+U U T S S s+R Q $.Z.t+                      ",
"                    J.u+v+O.=                                                                       J.w+x+y+                    ",
"                  # ! x+z+                                                                            % A+B+C+                  ",
"                _+D+E+C+                                                                                % F+G+H+                ",
"7 n I+J+K+L+L+M+N+O+9+                                                                                    $ P+Q+/ R+R+R+R+R+R+R+",
") S+S+' .+T+`.T+U+V+                                                                                        r.W+X+' ' ' ' ' ' ] ",
"R+L+Y+K+9+I+Z+7 @                                                                                             ; `+7 7 7 7 7 7  @",
"                                                                                                                                ",
"                                                                                                                                ",
"                                                                                                                                ",
"                                                                                                                                ",
"                                                                                                                                ",
"                                                                                                                                ",
"                                                                                                                                ",
"                                                                                                                                ",
"                                                                                                                                ",
"                                                                                                                                ",
"                                                                                                                                ",
"                                                                                                                                ",
"                                                                                                                                ",
"                                                                                                                                ",
"                                                                                                                                "};
