/* XPM */
static char * tron22_64_xpm[] = {
"64 64 229 2",
"  	c #000000",
". 	c #001111",
"+ 	c #001010",
"@ 	c #000F0F",
"# 	c #000D0D",
"$ 	c #000B0B",
"% 	c #000A0A",
"& 	c #000809",
"* 	c #000707",
"= 	c #000101",
"- 	c #000505",
"; 	c #000606",
"> 	c #000506",
", 	c #01ADAD",
"' 	c #01AEAE",
") 	c #01AEAD",
"! 	c #018080",
"~ 	c #000303",
"{ 	c #016666",
"] 	c #01ACAC",
"^ 	c #01ABAB",
"/ 	c #003636",
"( 	c #003737",
"_ 	c #013838",
": 	c #013939",
"< 	c #013A3A",
"[ 	c #013C3C",
"} 	c #013D3D",
"| 	c #014343",
"1 	c #02A6A6",
"2 	c #018D8D",
"3 	c #001515",
"4 	c #02B5B5",
"5 	c #015151",
"6 	c #013D3C",
"7 	c #002323",
"8 	c #02A0A0",
"9 	c #029494",
"0 	c #001A1A",
"a 	c #016464",
"b 	c #014444",
"c 	c #001E1E",
"d 	c #029A99",
"e 	c #029B9B",
"f 	c #001F1F",
"g 	c #000202",
"h 	c #016363",
"i 	c #02B6B6",
"j 	c #014646",
"k 	c #001919",
"l 	c #029393",
"m 	c #02A1A1",
"n 	c #002424",
"o 	c #016161",
"p 	c #014848",
"q 	c #001414",
"r 	c #028B8C",
"s 	c #02A9AA",
"t 	c #017574",
"u 	c #017473",
"v 	c #017373",
"w 	c #017272",
"x 	c #017171",
"y 	c #017070",
"z 	c #016F6F",
"A 	c #016F6E",
"B 	c #016E6E",
"C 	c #016D6D",
"D 	c #016C6C",
"E 	c #016B6B",
"F 	c #016A6A",
"G 	c #016969",
"H 	c #016869",
"I 	c #016868",
"J 	c #016767",
"K 	c #016667",
"L 	c #016565",
"M 	c #017675",
"N 	c #02B7B7",
"O 	c #014949",
"P 	c #019291",
"Q 	c #019292",
"R 	c #019393",
"S 	c #019494",
"T 	c #019594",
"U 	c #019595",
"V 	c #019696",
"W 	c #019796",
"X 	c #019797",
"Y 	c #019897",
"Z 	c #019898",
"` 	c #019998",
" .	c #019A99",
"..	c #019A9A",
"+.	c #019B9B",
"@.	c #019C9B",
"#.	c #019C9C",
"$.	c #019D9D",
"%.	c #014747",
"&.	c #000001",
"*.	c #019C9D",
"=.	c #019B9C",
"-.	c #019A9B",
";.	c #019999",
">.	c #03B6B6",
",.	c #017676",
"'.	c #016768",
").	c #01696A",
"!.	c #016A6B",
"~.	c #017271",
"{.	c #017372",
"].	c #017575",
"^.	c #01AAA9",
"/.	c #018C8B",
"(.	c #014748",
"_.	c #014645",
":.	c #02B6B5",
"<.	c #016262",
"[.	c #02999A",
"}.	c #004444",
"|.	c #00191A",
"1.	c #015150",
"2.	c #03B5B5",
"3.	c #003C3C",
"4.	c #003B3C",
"5.	c #003838",
"6.	c #013636",
"7.	c #01ABAA",
"8.	c #000808",
"9.	c #000C0D",
"0.	c #001011",
"a.	c #003434",
"b.	c #003535",
"c.	c #001313",
"d.	c #003939",
"e.	c #003A3A",
"f.	c #003B3B",
"g.	c #01ADAE",
"h.	c #01B2B2",
"i.	c #001C1C",
"j.	c #02AEAE",
"k.	c #01AFB0",
"l.	c #01AEAF",
"m.	c #01AFAF",
"n.	c #001112",
"o.	c #029696",
"p.	c #001B1B",
"q.	c #003E3E",
"r.	c #02B3B3",
"s.	c #000C0C",
"t.	c #000607",
"u.	c #029898",
"v.	c #029999",
"w.	c #014F50",
"x.	c #000708",
"y.	c #000909",
"z.	c #000A0B",
"A.	c #000E0E",
"B.	c #001212",
"C.	c #015959",
"D.	c #03B7B7",
"E.	c #015A5A",
"F.	c #029C9C",
"G.	c #02B2B2",
"H.	c #01ACAD",
"I.	c #01ADAC",
"J.	c #015152",
"K.	c #001415",
"L.	c #013B3B",
"M.	c #003D3C",
"N.	c #003C3B",
"O.	c #003938",
"P.	c #002626",
"Q.	c #000404",
"R.	c #016364",
"S.	c #016465",
"T.	c #016566",
"U.	c #016A69",
"V.	c #006A6A",
"W.	c #016B6A",
"X.	c #006C6B",
"Y.	c #006F6F",
"Z.	c #01706F",
"`.	c #017071",
" +	c #017172",
".+	c #017273",
"++	c #017374",
"@+	c #002A2A",
"#+	c #019E9D",
"$+	c #019D9C",
"%+	c #019B9A",
"&+	c #019896",
"*+	c #019695",
"=+	c #019394",
"-+	c #002F2F",
";+	c #017878",
">+	c #03B1B1",
",+	c #017E7E",
"'+	c #02ADAD",
")+	c #002E2D",
"!+	c #003333",
"~+	c #027F7F",
"{+	c #02ACAB",
"]+	c #002C2C",
"^+	c #028988",
"/+	c #02A9A9",
"(+	c #018181",
"_+	c #02ABAB",
":+	c #002B2B",
"<+	c #002525",
"[+	c #002625",
"}+	c #002727",
"|+	c #002828",
"1+	c #002D2D",
"2+	c #029090",
"3+	c #02A4A4",
"4+	c #018383",
"5+	c #02AAAA",
"6+	c #002929",
"7+	c #02AFAF",
"8+	c #01B0B0",
"9+	c #029A9A",
"0+	c #002121",
"a+	c #028383",
"b+	c #01B2B1",
"c+	c #002728",
"d+	c #002425",
"e+	c #002221",
"f+	c #002222",
"                                                                                                                                ",
"                                                                                                                                ",
"                                                                                                                                ",
"                                                                                                                                ",
"                                                                                                                                ",
"                                                                                                                                ",
"                                                                                                                                ",
"                                                                                                                                ",
"                                                                                                                                ",
"                                                                                                                                ",
"                                                                                                                                ",
"                                                                                                                                ",
"                                                                                                                                ",
"                                                                                                                                ",
". + @ # $ % & * =                                                                                               - ; ; ; ; ; ; > ",
", ' ' ) ) ' ' , ! +                                                                                         ~ { ] ] ] ] ] ] ] ^ ",
"/ ( _ : < [ } | 1 2 3                                                                                     ~ { 4 5 } } } } } } 6 ",
"                7 8 9 0                                                                                 ~ a 4 b =               ",
"                  c d e f                                                                             g h i j =                 ",
"                    k l m n                                                                         g o i p =                   ",
"                      q r s t u v v w w w w x x y y y z A B C D E E E F F F G G G H I J J K { L a h M N O =                     ",
"                        @ x P Q R R S S T U U U U V V V W X X Y Y Z `  .....+.+.+.+.+.@.#.#.$.$.$.$. .%.=                       ",
"                                                                                                                                ",
"                            &.                                                                                                  ",
"                      = %...$.$.$.#.*.#.@.=.+.+.+.+.-... .;.Z Y X X X W W V V V U U U U S S R R Q Q x @                         ",
"                    = O >.,.h a L { { J J '.I H G ).F F F !.E E D C B B z z y x x x ~.w w w {.{.u ].^./.q                       ",
"                  = (.i o g                                                                         n m l k                     ",
"                = _.:.<.g                                   = g g                                     f e [.c                   ",
"              = }.4 a ~                                                                                 |.9 8 7                 ",
"[ } } } } } } 1.2.{ ~                                                                                     3 2 1 | 3.4.< : 5.( 6.",
"^.^ ^ ^ ^ ^ ^ 7.L ~                                                                                         + ! ] , , , , ' ' , ",
"- ; ; ; ; ; ; -                                                                                               = * 8.% $ 9.@ + 0.",
"a.b.b.b.b.b.b.a.c.                                                                                            c / ( 5.d.e.f.[ [ ",
"] g.g.g.g.g.g.h.e i.                                                                                        / j.k.l.m., , g.g.] ",
". n.n.n.n.n.n.c o...p.                                                                                  = q.r.].q + @ s.$ % & t.",
"                k u.;.0                                                                               = %.2.D -                 ",
"                  0 v.Z k                                                                           = w.>.h ~                   ",
"                    p.e X 0 ; * * x.8.8.y.y.y.y.% % % % z.z.$ $ s.s.# # A.A.A.@ @ @ + + + + . . . B.C.D.E.g                     ",
"                      i.F.G.] H.H., , , , , , , ' ) ) , ) , I.] I., ) ) ) ' ' ' ' ' ' ' ' ' ' , ) ) 4 J.g                       ",
"                        K.L.} } } } } } M.3.3.3.3.N.f.f.f.e.e.d.d.d.d.d.O.5._ _ _ 5.5.( ( ( / / / b.P.=                         ",
"                                                                                                                                ",
"                        Q.%.<.R.S.T.{ { J '.I I I G U.F V.W.E E X.D C B Y.Z.y y `.x  +w w .+v v ++++y @+                        ",
"                      ; y D.#+$+$+$+#.#.#.@.+.+.%+%+%+.. .;.` Z &+X X X X X V V V *+U U T S S =+R Q $.j.-+                      ",
"                    y.;+>+f.=                                                                       y.,+'+)+                    ",
"                  # ! '+!+                                                                            % ~+{+]+                  ",
"                B.^+/+]+                                                                                % (+_+:+                ",
"7 n <+[+}+|+|+1+2+3+P.                                                                                    $ 4+5+/ 6+6+6+6+6+6+6+",
") 7+7+' m.8+k.8+9+0+                                                                                        s.a+b+' ' ' ' ' ' ] ",
"6+|+c+}+P.<+d+7 @                                                                                             ; e+7 7 7 7 7 7 f+",
"                                                                                                                                ",
"                                                                                                                                ",
"                                                                                                                                ",
"                                                                                                                                ",
"                                                                                                                                ",
"                                                                                                                                ",
"                                                                                                                                ",
"                                                                                                                                ",
"                                                                                                                                ",
"                                                                                                                                ",
"                                                                                                                                ",
"                                                                                                                                ",
"                                                                                                                                ",
"                                                                                                                                ",
"                                                                                                                                "};
