/* XPM */
static char * tron_seamless_circuitry_blue_64_xpm[] = {
"64 64 581 2",
"  	c #025657",
". 	c #000000",
"+ 	c #022F2F",
"@ 	c #023D3D",
"# 	c #022625",
"$ 	c #024242",
"% 	c #005656",
"& 	c #007170",
"* 	c #005D5C",
"= 	c #026867",
"- 	c #022D2E",
"; 	c #020E0A",
"> 	c #014948",
", 	c #020E0B",
"' 	c #021A19",
") 	c #024D4D",
"! 	c #021A18",
"~ 	c #024C4B",
"{ 	c #003332",
"] 	c #004242",
"^ 	c #020F0C",
"/ 	c #025959",
"( 	c #021B1A",
"_ 	c #024949",
": 	c #023E3E",
"< 	c #032A2A",
"[ 	c #025453",
"} 	c #015151",
"| 	c #023F3F",
"1 	c #022524",
"2 	c #024141",
"3 	c #005353",
"4 	c #007070",
"5 	c #005C5C",
"6 	c #006B6B",
"7 	c #024C4D",
"8 	c #022B2B",
"9 	c #014B4B",
"0 	c #023433",
"a 	c #024F4E",
"b 	c #003031",
"c 	c #003F40",
"d 	c #023132",
"e 	c #025656",
"f 	c #021A1A",
"g 	c #024848",
"h 	c #024645",
"i 	c #012121",
"j 	c #022525",
"k 	c #015150",
"l 	c #026B6A",
"m 	c #025B5C",
"n 	c #026767",
"o 	c #024545",
"p 	c #022626",
"q 	c #024E4E",
"r 	c #014A4A",
"s 	c #020F0B",
"t 	c #015252",
"u 	c #023535",
"v 	c #024140",
"w 	c #023131",
"x 	c #025B5A",
"y 	c #021E1D",
"z 	c #025050",
"A 	c #021D1C",
"B 	c #024241",
"C 	c #014949",
"D 	c #025452",
"E 	c #023F3E",
"F 	c #02302F",
"G 	c #015453",
"H 	c #025757",
"I 	c #023333",
"J 	c #021B19",
"K 	c #022321",
"L 	c #024849",
"M 	c #023F40",
"N 	c #005253",
"O 	c #025D5D",
"P 	c #005554",
"Q 	c #005454",
"R 	c #022C2C",
"S 	c #025B5B",
"T 	c #022727",
"U 	c #024747",
"V 	c #023434",
"W 	c #003232",
"X 	c #004140",
"Y 	c #024342",
"Z 	c #022728",
"` 	c #022929",
" .	c #025353",
"..	c #025251",
"+.	c #02100C",
"@.	c #024E4D",
"#.	c #005858",
"$.	c #006B6C",
"%.	c #014F50",
"&.	c #022F2E",
"*.	c #022A2A",
"=.	c #02120E",
"-.	c #004343",
";.	c #003433",
">.	c #025858",
",.	c #025756",
"'.	c #02100D",
").	c #007474",
"!.	c #023B3A",
"~.	c #023C3C",
"{.	c #023939",
"].	c #015655",
"^.	c #003B3B",
"/.	c #004646",
"(.	c #013636",
"_.	c #026261",
":.	c #021F1E",
"<.	c #025252",
"[.	c #021916",
"}.	c #008283",
"|.	c #005453",
"1.	c #023B3B",
"2.	c #023A3A",
"3.	c #023A39",
"4.	c #025A5A",
"5.	c #023536",
"6.	c #013939",
"7.	c #023737",
"8.	c #003D3C",
"9.	c #006D6E",
"0.	c #014747",
"a.	c #003737",
"b.	c #02130E",
"c.	c #016665",
"d.	c #02110D",
"e.	c #025D5E",
"f.	c #01BBBB",
"g.	c #00C2C1",
"h.	c #01A6A7",
"i.	c #025454",
"j.	c #023232",
"k.	c #024B4B",
"l.	c #024444",
"m.	c #023838",
"n.	c #024A4A",
"o.	c #003A3A",
"p.	c #026C6C",
"q.	c #023030",
"r.	c #006868",
"s.	c #006A6A",
"t.	c #006768",
"u.	c #006263",
"v.	c #024445",
"w.	c #005B5B",
"x.	c #025E5E",
"y.	c #00C4C4",
"z.	c #02C9C9",
"A.	c #026565",
"B.	c #024341",
"C.	c #004746",
"D.	c #004443",
"E.	c #025253",
"F.	c #023839",
"G.	c #022928",
"H.	c #026061",
"I.	c #024646",
"J.	c #027878",
"K.	c #025352",
"L.	c #025857",
"M.	c #02413F",
"N.	c #004747",
"O.	c #014848",
"P.	c #024F4F",
"Q.	c #026D6D",
"R.	c #024544",
"S.	c #024748",
"T.	c #024443",
"U.	c #023233",
"V.	c #004848",
"W.	c #004949",
"X.	c #003333",
"Y.	c #024E4F",
"Z.	c #022E2E",
"`.	c #022C2D",
" +	c #006766",
".+	c #024847",
"++	c #023636",
"@+	c #027372",
"#+	c #009494",
"$+	c #026667",
"%+	c #024240",
"&+	c #004444",
"*+	c #003434",
"=+	c #025152",
"-+	c #015756",
";+	c #02110E",
">+	c #022323",
",+	c #025455",
"'+	c #024B4C",
")+	c #024A49",
"!+	c #027979",
"~+	c #006C6B",
"{+	c #02393A",
"]+	c #028281",
"^+	c #02D3D3",
"/+	c #01B9B8",
"(+	c #021816",
"_+	c #003536",
":+	c #021511",
"<+	c #017979",
"[+	c #023534",
"}+	c #024343",
"|+	c #027E7D",
"1+	c #01DAD9",
"2+	c #02CDCD",
"3+	c #02423F",
"4+	c #026161",
"5+	c #025554",
"6+	c #005D5D",
"7+	c #024C4C",
"8+	c #015758",
"9+	c #018182",
"0+	c #012424",
"a+	c #025F5F",
"b+	c #02494A",
"c+	c #023F41",
"d+	c #01403F",
"e+	c #02C7C7",
"f+	c #028E8E",
"g+	c #023332",
"h+	c #004A4A",
"i+	c #021D1D",
"j+	c #004647",
"k+	c #017D7D",
"l+	c #025150",
"m+	c #015D5D",
"n+	c #006969",
"o+	c #02B5B5",
"p+	c #027776",
"q+	c #005757",
"r+	c #013F3F",
"s+	c #014544",
"t+	c #01AEAE",
"u+	c #01B3B2",
"v+	c #00D5D5",
"w+	c #014E4F",
"x+	c #021A17",
"y+	c #026969",
"z+	c #007776",
"A+	c #026463",
"B+	c #02A2A2",
"C+	c #02CACA",
"D+	c #027978",
"E+	c #024546",
"F+	c #024A4B",
"G+	c #02504F",
"H+	c #021612",
"I+	c #022B29",
"J+	c #01C0C0",
"K+	c #00FBFB",
"L+	c #00EEED",
"M+	c #005657",
"N+	c #025151",
"O+	c #012726",
"P+	c #005A5A",
"Q+	c #006E6E",
"R+	c #021613",
"S+	c #023B3C",
"T+	c #026262",
"U+	c #021C1A",
"V+	c #02A6A5",
"W+	c #02BDBD",
"X+	c #022827",
"Y+	c #01C1C0",
"Z+	c #00FFFF",
"`+	c #00F4F4",
" @	c #005859",
".@	c #023E3F",
"+@	c #026363",
"@@	c #005959",
"#@	c #006F70",
"$@	c #00B0B0",
"%@	c #023C3D",
"&@	c #026665",
"*@	c #02211F",
"=@	c #02605F",
"-@	c #019393",
";@	c #01C8C8",
">@	c #00FEFF",
",@	c #02DCDC",
"'@	c #024042",
")@	c #025354",
"!@	c #008586",
"~@	c #012D2C",
"{@	c #025859",
"]@	c #022C2B",
"^@	c #00EBEA",
"/@	c #00FCFC",
"(@	c #00FDFD",
"_@	c #02E3E3",
":@	c #006565",
"<@	c #027777",
"[@	c #023938",
"}@	c #024041",
"|@	c #004F4F",
"1@	c #006665",
"2@	c #02201F",
"3@	c #020C09",
"4@	c #011A1A",
"5@	c #028786",
"6@	c #01A3A2",
"7@	c #00B4B3",
"8@	c #00BDBD",
"9@	c #00BFBF",
"0@	c #02B7B7",
"a@	c #024D4C",
"b@	c #026A6A",
"c@	c #023130",
"d@	c #012323",
"e@	c #015454",
"f@	c #003F3F",
"g@	c #029191",
"h@	c #023D3E",
"i@	c #006464",
"j@	c #005B5A",
"k@	c #023334",
"l@	c #022220",
"m@	c #028383",
"n@	c #009191",
"o@	c #029091",
"p@	c #026060",
"q@	c #005151",
"r@	c #015959",
"s@	c #02ACAC",
"t@	c #016060",
"u@	c #026464",
"v@	c #005857",
"w@	c #014040",
"x@	c #003E3E",
"y@	c #003E3D",
"z@	c #004545",
"A@	c #027373",
"B@	c #02D5D4",
"C@	c #01D3D3",
"D@	c #003736",
"E@	c #003636",
"F@	c #026868",
"G@	c #006161",
"H@	c #006364",
"I@	c #005756",
"J@	c #023C3B",
"K@	c #023D3C",
"L@	c #015353",
"M@	c #005655",
"N@	c #026F6E",
"O@	c #02D9D9",
"P@	c #02D4D3",
"Q@	c #015F60",
"R@	c #006061",
"S@	c #006060",
"T@	c #005E5D",
"U@	c #005758",
"V@	c #024040",
"W@	c #023635",
"X@	c #026F6F",
"Y@	c #02D6D6",
"Z@	c #02CBCA",
"`@	c #005553",
" #	c #026E6E",
".#	c #025C5C",
"+#	c #016565",
"@#	c #003535",
"##	c #026C6B",
"$#	c #02C4C4",
"%#	c #008788",
"&#	c #021313",
"*#	c #020906",
"=#	c #005A5B",
"-#	c #032B2C",
";#	c #02403F",
">#	c #025C5B",
",#	c #022423",
"'#	c #025655",
")#	c #021C1B",
"!#	c #022B2C",
"~#	c #022A2B",
"{#	c #016262",
"]#	c #00696A",
"^#	c #014F4F",
"/#	c #025D5C",
"(#	c #025556",
"_#	c #032929",
":#	c #004241",
"<#	c #005252",
"[#	c #00D0D0",
"}#	c #00D9D9",
"|#	c #02B6B6",
"1#	c #005555",
"2#	c #03292A",
"3#	c #004141",
"4#	c #00898A",
"5#	c #00D3D3",
"6#	c #00DEDE",
"7#	c #029D9D",
"8#	c #005A59",
"9#	c #006C6C",
"0#	c #025F5E",
"a#	c #02595A",
"b#	c #004142",
"c#	c #015050",
"d#	c #015354",
"e#	c #014E4E",
"f#	c #014242",
"g#	c #016465",
"h#	c #025C5E",
"i#	c #006968",
"j#	c #005D5E",
"k#	c #024948",
"l#	c #015B5B",
"m#	c #014343",
"n#	c #016263",
"o#	c #005556",
"p#	c #015455",
"q#	c #025A59",
"r#	c #024243",
"s#	c #00706F",
"t#	c #003A3B",
"u#	c #022624",
"v#	c #025E5D",
"w#	c #025555",
"x#	c #006F6E",
"y#	c #013D3C",
"z#	c #016362",
"A#	c #016161",
"B#	c #013535",
"C#	c #015352",
"D#	c #021D1B",
"E#	c #025F5D",
"F#	c #006363",
"G#	c #006463",
"H#	c #014445",
"I#	c #025C5A",
"J#	c #014243",
"K#	c #022120",
"L#	c #011F1F",
"M#	c #015554",
"N#	c #022E2D",
"O#	c #021716",
"P#	c #022828",
"Q#	c #022425",
"R#	c #006262",
"S#	c #006F6F",
"T#	c #016464",
"U#	c #014443",
"V#	c #006767",
"W#	c #016A6A",
"X#	c #02696A",
"Y#	c #007271",
"Z#	c #016969",
"`#	c #017171",
" $	c #026666",
".$	c #02292A",
"+$	c #024A4C",
"@$	c #004B4A",
"#$	c #026869",
"$$	c #017978",
"%$	c #028989",
"&$	c #01CDCD",
"*$	c #01D1D1",
"=$	c #00CFCF",
"-$	c #02C8C8",
";$	c #012827",
">$	c #012324",
",$	c #032B2B",
"'$	c #022B2A",
")$	c #009090",
"!$	c #00DCDC",
"~$	c #00EEEE",
"{$	c #00F3F3",
"]$	c #01F4F4",
"^$	c #00F0F0",
"/$	c #00E0E0",
"($	c #02B3B3",
"_$	c #02A6A7",
":$	c #02C1C1",
"<$	c #008685",
"[$	c #019191",
"}$	c #009596",
"|$	c #009695",
"1$	c #018A89",
"2$	c #027473",
"3$	c #007878",
"4$	c #008D8E",
"5$	c #008E8E",
"6$	c #008989",
"7$	c #022927",
"8$	c #00C1C1",
"9$	c #00EDED",
"0$	c #006666",
"a$	c #02ABAB",
"b$	c #00E3E3",
"c$	c #01E6E6",
"d$	c #00DDDD",
"e$	c #00EAE9",
"f$	c #01C3C3",
"g$	c #023435",
"h$	c #003838",
"i$	c #003635",
"j$	c #012525",
"k$	c #028F8F",
"l$	c #009F9F",
"m$	c #00A1A1",
"n$	c #009B9B",
"o$	c #022322",
"p$	c #028B8C",
"q$	c #008F8F",
"r$	c #008383",
"s$	c #028182",
"t$	c #014847",
"u$	c #025958",
"v$	c #017272",
"w$	c #026D6E",
"x$	c #015F5F",
"y$	c #00605F",
"z$	c #006A69",
"A$	c #015D5B",
"B$	c #015656",
"C$	c #006A6B",
"D$	c #005B5C",
"E$	c #01393A",
"F$	c #005F5E",
"G$	c #004445",
"H$	c #027070",
"I$	c #005E5E",
"J$	c #025F60",
"K$	c #02B6B5",
"L$	c #006D6D",
"M$	c #015555",
"N$	c #025051",
"O$	c #022D2D",
"P$	c #015D5E",
"Q$	c #00CBCA",
"R$	c #006E6D",
"S$	c #025D5F",
"T$	c #022E2F",
"U$	c #004040",
"V$	c #02A3A3",
"W$	c #01BABB",
"X$	c #01B4B4",
"Y$	c #023E3D",
"Z$	c #022826",
"`$	c #003131",
" %	c #014142",
".%	c #028A8A",
"+%	c #022A28",
"@%	c #00D3D2",
"#%	c #01ABAC",
"$%	c #021F1D",
"%%	c #023031",
"&%	c #00EFEF",
"*%	c #00F7F7",
"=%	c #02B4B4",
"-%	c #026160",
";%	c #00FAFA",
">%	c #00F4F3",
",%	c #015858",
"'%	c #023837",
")%	c #004546",
"!%	c #00F9F9",
"~%	c #005C5B",
"{%	c #026B6B",
"]%	c #005354",
"^%	c #014444",
"/%	c #00F6F5",
"(%	c #00F5F5",
"_%	c #024344",
":%	c #00DBDB",
"<%	c #00ECEC",
"[%	c #022422",
"}%	c #005455",
"|%	c #022F30",
"  . . + @ . . . . . . # $ . . . . % . . & . * . . = - . . . . ; > , . ' ) . ! ~ . . . { ] . . . ^ / ( . . _ : . . . . . . . . < ",
"< [ } | . . . . . . 1 2 . . . . . 3 . . 4 . 5 . . 6 7 8 . . . . , 9 0 a . ! ~ . . . . b c . . d e f . . . . g h i . . . . . . . ",
". . . . . . . . . j 2 . . . . . . k . . l . m . . n . o p . . . . ^ ~ . ( q . . . . , r s . . t . . . . . . . u g + . . . . . . ",
". . . . . . . . # 2 . . . . . . . v w . _ x y . z A . . B # . . . . . ' a . . . . , C , . . . D . . . . . . . . . E F . . . . . ",
"G H . . . . . # 2 . . . . . . . . . B I . . . a J . . . . 2 # . . . . K L . . . ^ 7 , . . . M _ . . . . . . . . . . N . . O P Q ",
". R S . . . T $ . . . . . . . . . . . U V . W X . . . . . . Y Z . . . . `  .Q Q ..+.. . . w @.. . . . . . . . . . . Q . . #.. . ",
". . $.. . . %.. . . . . . . . . . . . o @ . 2 &.. . . . . . . U *.. . . . . . . . =.n F . -.;.. . . . . . . . . . . >.A . ,.'.. ",
". . ).. . . 3 . . . . . . . . . . . !.~.. {.{.. . . . . . . . . ].. . . . . . . . ^.6 ^.. /.(.. . . . . . . . . . . '._.:.'.<.'.",
"[.. }.. . . |.. . . . . . . . . . 1.2.. !.3.. . . . . . . .  .4.5.. . 6.. . O 7.. 8.9.8.. 0.a.. . . . . . . . . . . . b.c.:.d.e.",
"f.g.h.. . . i.. . . . . . . . . j.k.. j.l.. . . . . . . .  .m.. . . . . . . n.1 . o.p.^.. q.r.s.t.u.U . . . . . . . v.w.x./ . [.",
"y.z.A.. . . B.w . . . . . . . . /.C.. D.{ . . . . . . . E.F.. . . . . . . . . . . G.H.. . . . . . . ` I.. . . . . Y I . . . . . ",
"J.x.. K.L.V . M.F . . . . . . . N.O.. -.{ . . . . . .  .F.. P.5 Q.. . . . . . . . . . . . . . . . . . *.z . . . R.V . . . . . . ",
". . k.S.. T.U.. M.q.. . . . . . V.W.. -.X.. . . . .  .F.. Y.Z.d.H . . . . . . . . . `.e   | . . . . . .  +. . .+++. @+#+$+. . . ",
". . @.' . . %+w . M.q.. . . . . V.W.. &+*+. . . . =+m.. z Z.d.-+;+'.>+. . . . . . ,+'+. . )+: . . . . . !+~+$+{+. ]+^+/+3.. . . ",
". . . k.(+. . M.d . M.q.. . . . O.W.. /._+. . . i.~.. <.$ =.-+;+:+<+[+. . . . . . }+ .. . . _ | . . . . . . . . |+1+2+U . . . . ",
". . . . _ (+. . 3+d . M.q.. . . C W.. &+4+#.% 5+( . . 6+7+8+=.:+9+z . 8 a.0+. . a+. b+i.. . . n.c+. . . . . . d+e+z.k.. f+M . . ",
". . . . . _ (+. . v w . %+g+. . r h+. . . . . . . . . i+j+d.b.k+l+. v m+6+n+. . o+p+. L <.. . . >.. . k.q+r+. s+t+o . u+v+w+. . ",
". . . . . . n.x+. . v d . R.4.6+y+w . . . . . . / z+4+. . . z n.. @ E . . A+y . B+C+D+. E+e -.h F+. Z.G+. 5 . H+I+. J+K+L+M+. . ",
". . . . . . . N+. . . T.5.. + a.O+. q P+P+#.. . Q+R+$+. . . . . S+~.. . . d.T+:.U+V+W+n . X+X.+ . . 4.. R.l.. . . Y+Z+Z+`+ @. . ",
". . . . . . . O..@. . . +@. . . . E o . . @@. . #@$@D.. . . . : %@. . . . . d.&@*@! w.'+. . . . . . =@z R.. H.-@;@>@Z+Z+,@[+. . ",
". . . . . . . . n.'@. . 6 . . . . D.*+. . @@. . )@!@~@. . . 7+{@. . . . . . . b.y+. . . . . . . . . ]@G.. =@2+^@/@Z+(@_@G+. z . ",
". . . . . . . . . 7+:@n+<@. . . . [@}@. . @@. . . . . R.|@m.. S : . . . . . . . 1@. . 2@3@. . . . . . . 4@5@6@7@8@9@0@a@. b@&@. ",
". . . . . . . . . . . . . . c@*+d@. R.e@e@F+. . . . >.o f@g@)@. S h@. . . . . . i@. . E+:.. . . . . . . . . . . . . . . n V j@. ",
". . . . . . . . . . . . . . n &+) k@. . . . l@m@n@o@p@q@r@s@z.S . 4.h@. . . . . t@. . . . . . . . . . . . . . . . . . u@w .  @. ",
". . . . . . . . . . . . . . v@. . %+w . . . ;+^.r+w@x@y@z@A@B@C@O . S B a.D@E@E+@ . . . . . . . . . . . F@G@H@i@i@i@n d . . I@. ",
". . . . . . . . . . . . . J@K@. . . v L@M@n.. . . . . . . . N@O@P@m .  .5 w.@@@ . . . . . . . . . . . . O 6+Q@R@S@t@T@j@#.U@+@. ",
". . . . . . . . . . . . . P . . . . . . . P+. . V@z@&+-.&+W@. X@Y@Z@<.. . . . . . . . . . . . . . . . . . . . . . . . . . . . . ",
"L.% P |.e@G Q `@% #. #. . M@. . . . . . . .#. . +#@#;.;.;._ v . ##$#%#. . . . . &#*#. . . . . . . . . . . . . . . . . . . . . _ ",
". . . . . . . . . . =#. . ].. . . . . . 4.2.. _ -#. . . . . V@;#. >#X@. . . . . ,#&#. . . . . . . . . . . . . . . . . . . . . n+",
". . . . . . . . . +.'#. )#4.. . . . . >.!#. b+~#. . . . . . . | | . . . . . . . . . . . . . . . . {#@@q+N+. . . . . . . . . . ]#",
". . . . . . . . ^ ^#+.A /#+.. . . . e < . K@1.. . . . . . . . . i.. . . . . . . . . . . . . . . .  @. +.L.. . . . . . . . . . A+",
" .:.. . . . . s q +.A x.+.. . . . (#_#. . :#W . . . . . . . . . <#. . m@[#}#|#*.. . . . . . . . . P+. a+d.. @ . . W W W W ;.'.y ",
"A q+1#P P P Q N+^ . p@'.. . . .   2#. . . 3#W . . . . . . . . . <#. . 4#5#6#[#7#. . . . . . . . . 8#. 9#. . . . H R.:#3#] -.0#d.",
"'.. . . . . . . . . #.. . . . a#!#. . . . b#W . . . . . . . . . c#. . w w+d#e#f#. . . . . . . . . g#S U . . . >.*.. . . . . A x.",
";.. . . . . . . . . '+`.. . h#R . . . . . U+z . . . . . . . . T l.. . . . . . . . . i#j#x.a . . . . . . k#].l#*.. . . . . . . m#",
"X.. z 4+@@% Q Q ,+-#. l+n#A.- . ..o#Q p#q#'.( G+. . . . . . p r#. . . . . . . . . . s#. . x . . . . . . L.. . . . . . . . . . ] ",
"X.. t@t#. . . . . @.u#. . . . N+A . . . A v#'.)#w#. . . . T }+. . . . . . . . . . . x#y#8.z#. . h h . . e@. . . . . . . . . . ] ",
";.. A#t#. . . . . B#&+. . . . C#. . . . . D#E#d.)#i.t t } R.. . . . . . . . . . . . m#F#G#,.. . ;#| . . |.. . . . . . . . . . ] ",
";.. T@L.1.;.X.;.@#_ H#. . . . t . . . . . . A I#. . . . . . . . . . . . . . . . . . . . . . . . . . . . ,+. . . . . . . . . . J#",
";.. K#a.l.&+-.&+z@z@L#. . . . k#8 . . . . . . M#. . . . . . . . . . . . . . . . . N#*+*+X.X.;.O#. . . . ~.<.P#. . . . . . . . -.",
"Q#. . . . . . . . . . / R#p.. . q#. . . . . . m+. . c.S#T#. . . . . . . . . . . o N+&+U#f#] m#.#V#W#X#k.. . l.P#. . . . . . . >.",
". Y.w.* 7+C h+r r#. . Q+. Y#. . Z#. . . . . . `#. .  $F#+@. . . . . . . . . . . Y.V@. . . . . . . . . @@. . . o .$. . . . . )@{.",
"+$: E@a.o O.r @$c.. . #$R@$$. . %$J+&$[#[#*$=$-$  . ;$t#O+. . . . . . . . . . . . N+Z.. . . . . . . 1.P.. >$>$. g ,$. . . )@F.. ",
"'$. . . . . . . #.. . . . . . . )$!$~${$]$`+^$/$($. . . . . . . . . . . . . _$:$)+. P.Z.. . . . . 1.e . k@) {@1.. n.e@M#{@{.. g ",
". . . . . . . U+N+. . . . . . . )@<$[$}$|$|$-@1$2$. . ~ 3$<$4$5$6$<+7$. . . 8$9$Y@)+. N+i@:@0$1@:@e . I Y . . e 1.. . . . . U .$",
". . . . . . ' q . R L.|.G P M@w@. . . . . . . . . . . n a$v+b$c$d$y.z@. . . 8$9$e$f$: . . . . . . . g$T.. . . . t.. . . . g ` . ",
". . . . . . ... . x.. . . . . P+. ;+a.h$i$*+*+@#j$. . . ( k$l$m$n$4#&.. . o$p$q$q$r$s$. . . . . . . I@. . . . . n+. . . T+-#. . ",
". . . . . . Q . . q+. . . . . @@. h$p.t$z@-.-.z@u$v$>#. . . . . . . . . . w$. . . . `#. . p@x$m . . v@. . . . . s.. . . ]#. . . ",
". . . . . . #.. . % . . . . . v@. o.y$. . . . . . h$u$. . . . . . . . . . z$. . . . i#. . A$. 6+. . a+#.I@B$@@w.0$. . . C$. . . ",
". . . . . . D$. . I@. . . . . % . E$F$. . . . . . @#G$. . . . . . . (#. . s.. . . . +@. . H$I$X#. . . . . . . . . . . . ]#. . . ",
". . J x.:@ +p@. . I@. . . . . u$`.. J$- . . . . . W ] . . . . . . u@K$. . L$. . . . B Y . . . . . . . . . . . . . . . . O - . . ",
"1#|.q . . . . . . M$N$. . . . . m O$. P$`.. . . . W 3#. . . . . T+C+Q$. . R$. . . . . .#. . . . . . . . . . . . . . . . . e.@@% ",
". . . . . . . . . . ' q . . . . . S$T$. m R . . . W U$. . . . j.V$W$X$. . 9 9#~+s.6 ~+0$. . ^ . . . . . . . . . . Y$/.C.Z$. . . ",
". . . . . . . . . . . U+... . . . . T+q.. 4.8 . . `$U$. . . . . . . . . . . . . . . . . . . . . . . . . . . . . E.7+/./.N+8 . . ",
"7+. . . . . . . .  %.%. i+e . . . . T$N@. . S . . T.+%. . . . . . . . . . . . . . . . . . . . . . . . . . . . w#{.. . . . g B$@@",
"I@. . . . . . . . w+@%#%. $% $6 9#L$i.. . . M@. %+%%. . . . . . . . . . . . . . . . . . . . . . . . . . . . <.1.. . . . . . . . ",
"q+. . . . . . . . #.&%*%=%. . . . . . . . . @ i.U.. . . . . j b W W W V N+N$' . . . . . . . . . . . . . . . O Q+-%. . . . . . . ",
"@ . {.E.P q+=@D.. m+;%Z+>%,%. . . . . U P+2 . . . . . . . '%E+U$3#U$U$| . . <.. . . . . . . . . . . . . . . . . `.>.. . . . . 1.",
". {.{.. . . B#)%. I$K+Z+!%~%. a {%. . w.. l#. . . . . . '%'%. . . . . . . . ]%. . . . . .  .... . . . . . . . . . *.e . . . 2.3.",
"{.{.. . . . ;.^%. P+/%Z+(%@@. I.T#. . >#e 0#. . . . . N#I.. . . . . . . . . ]%. . . . . 4.O$#.. . . . . . . . . . . *.e { _%!.. ",
"2.. . . . . W ] . ^#:%<%!$k.. . . . . 0+2@. . . . . . , 9 s . . . . . . . . ]%. . . . . u$. P+. . . . . . . . . . . . [%3#w . !.",
". . . . . . S+[+. [.e#}%F+. . . . . . . . . . . . . . . , C , . . . . . . . |.. . ' z . |%>#Z#. . . . . . . . . . . . . . . w _%",
". . . . . N#Y$. . . . . . !#A# +V#/ . . .#@@'#. . . . . . , S.; . . . . . J P.. ' ) R h#. . . . . . ^ :#c@. . . . . . . . . :#{ ",
". . . . N#~.. . . . . . T U . . . @@. . L$. w.. . . . . . . ; 0., . . . ' ) . x+k.. . @ Y . . . . ^ / [+@..@. . . . . . . . o$  "};
